/* XPM */
static char *c15ae776875e494ed501fb0c0acda2b3SMQDOj1Unbb95fZY[] = {
/* columns rows colors chars-per-pixel */
"64 64 5 1 ",
"  c None",
". c gray33",
"X c #9C5B05",
"o c gray78",
"O c white",
/* pixels */
"                                                                ",
"                                                                ",
"                                                                ",
"                                                                ",
"                                                                ",
"                                                                ",
"                                                                ",
"                                                                ",
"                                                                ",
"                                                                ",
"                                                                ",
"                                                                ",
"                                                                ",
"                                                                ",
"                                                                ",
"                                                                ",
"                                                                ",
"                                                                ",
"                                                                ",
"                                                                ",
"                                                                ",
"                                                                ",
"                                                                ",
"                                                                ",
"                                                                ",
"                                                                ",
"         ..OOOOOOOOOOOOOOOOOOOOOOOOOOOOOOOOOOOXXXXXXXXXXX       ",
"         ..OOOOOOOOOOOOOOOOOOOOOOOOOOOOOOOOOOOXXXXXXXXXXX       ",
"         ..OOOOOOOOOOOOOOOOOOOOOOOOOOOOOOOOOOOXXXXXXXXXXX       ",
"         ..OOOOOOOOOOOOOOOOOOOOOOOOOOOOOOOOOOOXXXXXXXXXXX       ",
"         oooooooooooooooooooooooooooooooooooooooooooooooo       ",
"                                                                ",
"                                                                ",
"                                                                ",
"                                                                ",
"                                                                ",
"                                                                ",
"                                                                ",
"                                                                ",
"                                                                ",
"                                                                ",
"                                                                ",
"                                                                ",
"                                                                ",
"                                                                ",
"                                                                ",
"                                                                ",
"                                                                ",
"                                                                ",
"                                                                ",
"                                                                ",
"                                                                ",
"                                                                ",
"                                                                ",
"                                                                ",
"                                                                ",
"                                                                ",
"                                                                ",
"                                                                ",
"                                                                ",
"                                                                ",
"                                                                ",
"                                                                ",
"                                                                "
};
