/* XPM */
static char *result[] = {
/* columns rows colors chars-per-pixel */
"64 64 155 2 ",
"   c black",
".  c #480000",
"X  c #E19A05",
"o  c #E19A06",
"O  c #E19B07",
"+  c #E19B08",
"@  c #E19C09",
"#  c #E29C0A",
"$  c #E29D0B",
"%  c #E29D0C",
"&  c #E29E0D",
"*  c #E29E0E",
"=  c #E29E0F",
"-  c #E29F0F",
";  c #E29F10",
":  c #E29F11",
">  c #E39F12",
",  c #E39F13",
"<  c #E39F14",
"1  c #E2A012",
"2  c #E3A013",
"3  c #E3A015",
"4  c #E3A116",
"5  c #E4A21A",
"6  c #E4A31B",
"7  c #E4A31C",
"8  c #E4A41D",
"9  c #E4A41E",
"0  c #E5A51F",
"q  c #E5A724",
"w  c #E5A725",
"e  c #E6A829",
"r  c #E6A92A",
"t  c #E6A92B",
"y  c #E6A92C",
"u  c #E6AB2F",
"i  c #E6AB30",
"p  c #E6AC31",
"a  c #E6AC32",
"s  c #E7AE37",
"d  c #E7AF38",
"f  c #E7AF39",
"g  c #E7B03A",
"h  c #E7B13D",
"j  c #E8B140",
"k  c #E8B241",
"l  c #E8B242",
"z  c #E8B344",
"x  c #E9B64A",
"c  c #EAB74D",
"v  c #EAB84E",
"b  c #EAB951",
"n  c #EAB952",
"m  c #EABA53",
"M  c #EBBA54",
"N  c #EBBA56",
"B  c #EBBB57",
"V  c #ECBD5C",
"C  c #ECBE5D",
"Z  c #ECBE5E",
"A  c #ECBE5F",
"S  c #ECBF60",
"D  c #ECC063",
"F  c #EDC369",
"G  c #EDC36A",
"H  c #EEC36D",
"J  c #EEC46F",
"K  c #EEC56F",
"L  c #EEC570",
"P  c #EEC571",
"I  c #EEC672",
"U  c #EFC673",
"Y  c #EFC774",
"T  c #EFC775",
"R  c #EFC776",
"E  c #EFC876",
"W  c #EFC877",
"Q  c #EFCA7B",
"!  c #EFCA7C",
"~  c #EFCB7E",
"^  c #EFCC7F",
"/  c #EFCC80",
"(  c #EFCC81",
")  c #F0CD81",
"_  c #F0CD84",
"`  c #F1CF89",
"'  c #F1D08B",
"]  c #F1D18C",
"[  c #F1D18D",
"{  c #F1D18E",
"}  c #F1D28F",
"|  c #F1D290",
" . c #F2D391",
".. c #F2D393",
"X. c #F2D494",
"o. c #F2D595",
"O. c #F2D596",
"+. c #F2D597",
"@. c #F3D698",
"#. c #F3D699",
"$. c #F3D69A",
"%. c #F3D69C",
"&. c #F4DAA3",
"*. c #F4DAA4",
"=. c #F4DBA6",
"-. c #F5DBA6",
";. c #F5DCA8",
":. c #F5DDA9",
">. c #F5DEAC",
",. c #F5DFAE",
"<. c #F6DFAF",
"1. c #F6DFB0",
"2. c #F6DFB1",
"3. c #F6E0B2",
"4. c #F6E0B3",
"5. c #F6E1B5",
"6. c #F7E2B7",
"7. c #F7E2B8",
"8. c #F7E3B9",
"9. c #F7E3BA",
"0. c #F7E4BB",
"q. c #F7E4BC",
"w. c #F7E4BD",
"e. c #B8C1C8",
"r. c #F8E6C0",
"t. c #F8E8C6",
"y. c #F8E8C7",
"u. c #F8E8C8",
"i. c #F8E9C9",
"p. c #F8E9CA",
"a. c #F8EACB",
"s. c #F9EBCD",
"d. c #F9EBCE",
"f. c #F9EBCF",
"g. c #F9ECD0",
"h. c #F9ECD1",
"j. c #F9EDD2",
"k. c #F9EDD3",
"l. c #FAEED5",
"z. c #FAF0D8",
"x. c #FAF0D9",
"c. c #FAF0DA",
"v. c #FAF1DB",
"b. c #FBF1DC",
"n. c #FBF1DD",
"m. c #FBF1DE",
"M. c #FBF2DF",
"N. c #FBF3E1",
"B. c #FBF3E2",
"V. c #FCF3E3",
"C. c #FCF4E4",
"Z. c #FCF4E5",
"A. c #FCF5E6",
"S. c white",
"D. c None",
/* pixels */
"D.D.D.D.D.D.D.D.D.D.D.D.D.D.D.D.D.D.D.D.D.D.D.D.D.D.D.D.D.D.D.D.D.D.D.D.D.D.D.D.D.D.D.D.D.D.D.D.D.D.D.D.D.D.D.D.D.D.D.D.D.D.D.D.",
"D.D.D.D.D.D.D.D.D.D.D.D.D.D.D.D.D.D.D.D.D.D.D.D.D.D.D.D.D.D.D.D.D.D.D.D.D.D.D.D.D.D.D.D.D.D.D.D.D.D.D.D.D.D.D.D.D.D.D.D.D.D.D.D.",
"D.D.D.D.D.D.D.D.D.D.D.D.D.D.D.D.D.D.D.D.D.D.D.D.D.D.D.D.D.D.D.D.D.D.D.D.D.D.D.D.D.D.D.D.D.D.D.D.D.D.D.D.D.D.D.D.D.D.D.D.D.D.D.D.",
"D.D.D.D.D.D.D.D.D.D.D.D.D.D.D.D.D.D.D.D.D.D.D.D.D.D.D.D.D.D.D.D.D.D.D.D.D.D.D.D.D.D.D.D.D.D.D.D.D.D.D.D.D.D.D.D.D.D.D.D.D.D.D.D.",
"D.D.D.D.D.D.D.D.D.D.D.D.D.D.D.D.D.D.D.D.D.D.D.D.D.D.D.D.D.D.D.D.D.D.D.D.D.D.D.D.D.D.D.D.D.D.D.D.D.D.D.D.D.D.D.D.D.D.D.D.D.D.D.D.",
"D.D.D.D.D.D.D.D.D.D.D.D.D.D.D.D.D.D.D.D.D.D.D.D.D.D.D.D.D.D.D.D.D.D.D.D.D.D.D.D.D.D.D.D.D.D.D.D.D.D.D.D.D.D.D.D.D.D.D.D.D.D.D.D.",
"D.D.D.D.D.D.D.D.D.D.D.D.D.D.D.D.D.D.D.D.D.D.D.D.D.D.D.D.D.D.D.D.D.D.D.D.D.D.D.D.D.D.D.D.D.D.D.D.D.D.D.D.D.D.D.D.D.D.D.D.D.D.D.D.",
"D.D.D.D.D.D.D.D.D.D.D.D.D.D.D.D.D.D.D.D.D.D.D.D.D.D.D.D.D.D.D.D.D.D.D.D.D.D.D.D.D.D.D.D.D.D.D.D.D.D.D.D.D.D.D.D.D.D.D.D.D.D.D.D.",
"D.D.D.D.D.D.D.D.D.D.D.D.D.D.D.D.                                                                  D.D.D.D.D.D.D.D.D.D.D.D.D.D.D.",
"D.D.D.D.D.D.D.D.D.D.D.D.D.D.D.D.                                                                  D.D.D.D.D.D.D.D.D.D.D.D.D.D.D.",
"D.D.D.D.D.D.D.D.D.D.D.          S.S.e.e.e.e.e.e.e.e.e.e.e.e.e.e.e.e.e.e.e.e.e.e.e.e.e.e.e.e.e.e.e.          D.D.D.D.D.D.D.D.D.D.",
"D.D.D.D.D.D.D.D.D.D.D.          S.S.e.e.e.e.e.e.e.e.e.e.e.e.e.e.e.e.e.e.e.e.e.e.e.e.e.e.e.e.e.e.e.          D.D.D.D.D.D.D.D.D.D.",
"D.D.D.D.D.D.D.D.D.D.D.          S.S.e.e.e.e.e.e.e.e.e.e.e.e.e.e.e.e.e.e.e.e.e.e.e.e.e.e.e.e.e.e.e.          D.D.D.D.D.D.D.D.D.D.",
"D.D.D.D.D.D.D.D.      S.S.S.S.S.e.e.                                                          e.e.e.e.e.e.e.    D.D.D.D.D.D.D.D.",
"D.D.D.D.D.D.D.D.      S.S.S.S.S.e.e.                                                          e.e.e.e.e.e.e.    D.D.D.D.D.D.D.D.",
"D.D.D.D.D.D.D.D.      S.S.e.e.e.    X o + $ , 5 e s b K _ &.. .                                   e.e.e.e.e.    D.D.D.D.D.D.D.D.",
"D.D.D.D.D.D.D.D.      S.S.e.e.e.    o @ $ , 9 e j n P X.:.u.. .                                   e.e.e.e.e.    D.D.D.D.D.D.D.D.",
"D.D.D.D.D.D.    S.S.S.e.e.      X o @ * . . . . . . . 7.s.Z.A.A.. . .                                 e.e.e.e.e.      D.D.D.D.D.",
"D.D.D.D.D.D.    S.S.S.e.e.      o + % , . . . . . . . d.M.A.A.A.. . .                                 e.e.e.e.e.      D.D.D.D.D.",
"D.D.D.D.D.D.    S.S.S.e.e.      @ % , 0 . . . . . . . A.A.A.A.A.. . .                                 e.e.e.e.e.      D.D.D.D.D.",
"D.D.D.D.D.D.    S.S.S.e.e.      * , 0 a . .           A.A.A.B.g.. . .                                 e.e.e.e.e.      D.D.D.D.D.",
"D.D.D.D.D.D.    S.S.S.e.e.      , 7 t l . .           A.A.A.g.9.. . .                                 e.e.e.e.e.      D.D.D.D.D.",
"D.D.D.D.D.D.    S.S.S.e.e.      . . . . . .       A.A.A.A.g.<.+.. . .                                 e.e.e.e.e.      D.D.D.D.D.",
"D.D.D.D.D.D.    S.S.S.e.e.      . . . . . .       A.A.A.z.8.O.^ . . .                                 e.e.e.e.e.      D.D.D.D.D.",
"D.D.D.D.D.D.    S.S.S.e.e.      . . . . . .       A.A.d.7.o.U V . . .                                 e.e.e.e.e.      D.D.D.D.D.",
"D.D.D.D.D.D.    S.S.S.e.e.                  A.A.A.A.s.>.X.I n k r 9 < - - . . . h c H } =.t.n.A.A.. . e.e.e.e.e.      D.D.D.D.D.",
"D.D.D.D.D.D.    S.S.S.e.e.                  A.A.A.l.6.X.! V j i 9 4 : - : . . . v D _ -.w.c.A.A.A.. . e.e.e.e.e.      D.D.D.D.D.",
"D.D.D.D.D.D.    S.S.S.e.e.              A.A.A.Z.a.5.... . . e 8 < ; - . . . . . . . ;.p.b.A.A.. . . . e.e.e.e.e.      D.D.D.D.D.",
"D.D.D.D.D.D.    S.S.S.e.e.              A.A.b.p.;. .J . . . 5 < - - < . . . . . . . a.Z.A.A.A.. . . . e.e.e.e.e.      D.D.D.D.D.",
"D.D.D.D.D.D.D.D.                    A.A.A.C.i.4.| . .       < ; - 1 5 . .           m.A.A.A.A.. .               D.D.D.D.D.D.D.D.",
"D.D.D.D.D.D.D.D.                    A.A.B.u.-.} H . .       - - < 6 r . .           A.A.A.A.h.. .               D.D.D.D.D.D.D.D.",
"D.D.D.D.D.D.D.D.                    A.n.g.2.{ W B . .       ; 1 6 q d . .           A.A.A.v.w.. .               D.D.D.D.D.D.D.D.",
"D.D.D.D.D.D.D.D.                    A.n.g.2.{ W B . .       ; 1 6 q d . .           A.A.A.v.w.. .               D.D.D.D.D.D.D.D.",
"D.D.D.D.D.D.D.D.                Z.l.h.r.,.[ . . .           < 6 r f m . .           A.A.c.q.$.. .               D.D.D.D.D.D.D.D.",
"D.D.D.D.D.D.D.D.                8.9.<.%.` G . . .           0 t k m T . .           A.h.q.#.R . .               D.D.D.D.D.D.D.D.",
"D.D.D.D.D.D.    S.S.S.e.e.      *.&.+.) L m g y 7 , = = 2 7 t g M F ' <.t.B.A.A.A.A.c.0.*.( A . .     e.e.e.e.e.      D.D.D.D.D.",
"D.D.D.D.D.D.    S.S.S.e.e.      ~ Q K V v d w 7 2 = = , 7 y l M R ] <.g.B.A.A.A.A.x.9.@./ Z l . .     e.e.e.e.e.      D.D.D.D.D.",
"D.D.D.D.D.D.    S.S.S.e.e.      . . . . . . . . . . . . . . S R #.1.h.. . . . . . . +.Y Z k t . .     e.e.e.e.e.      D.D.D.D.D.",
"D.D.D.D.D.D.    S.S.S.e.e.      . . . . . . . . . . . . . . E [ 1.y.V.. . . . . . . ^ C x p 0 . .     e.e.e.e.e.      D.D.D.D.D.",
"D.D.D.D.D.D.    S.S.S.e.e.      . . . . . . . . . . . . . . $.2.h.V.A.. . . . . . . V k p 9 , . .     e.e.e.e.e.      D.D.D.D.D.",
"D.D.D.D.D.D.    S.S.S.e.e.                                  w.j.A.A.A.. .           j e 9 , $ . .     e.e.e.e.e.      D.D.D.D.D.",
"D.D.D.D.D.D.    S.S.S.e.e.                                  j.C.A.A.A.. .           u 8 4 & @ . .     e.e.e.e.e.      D.D.D.D.D.",
"D.D.D.D.D.D.    S.S.S.e.e.                                  A.A.A.A.Z.. .           8 , & @ o . .     e.e.e.e.e.      D.D.D.D.D.",
"D.D.D.D.D.D.    S.S.S.e.e.                                  A.A.A.A.k.. .           3 & # O X . .     e.e.e.e.e.      D.D.D.D.D.",
"D.D.D.D.D.D.    S.S.S.e.e.                                  A.A.V.j.3.. .           & @ O X X . .     e.e.e.e.e.      D.D.D.D.D.",
"D.D.D.D.D.D.    S.S.S.e.e.                            n.A.A.A.N.y.2.} H B . . . > & @ o X X X X X . . e.e.e.e.e.      D.D.D.D.D.",
"D.D.D.D.D.D.    S.S.S.e.e.                            m.A.A.n.f.1.$.W N z . . . & # O X X X X X X . . e.e.e.e.e.      D.D.D.D.D.",
"D.D.D.D.D.D.D.D.      S.S.e.e.e.                      . . . . . . . . . . . . . . . . . . . . . . e.e.e.e.e.    D.D.D.D.D.D.D.D.",
"D.D.D.D.D.D.D.D.      S.S.e.e.e.                      . . . . . . . . . . . . . . . . . . . . . . e.e.e.e.e.    D.D.D.D.D.D.D.D.",
"D.D.D.D.D.D.D.D.      S.S.e.e.e.                      . . . . . . . . . . . . . . . . . . . . . . e.e.e.e.e.    D.D.D.D.D.D.D.D.",
"D.D.D.D.D.D.D.D.      S.S.S.S.S.e.e.                                                          e.e.e.e.e.e.e.    D.D.D.D.D.D.D.D.",
"D.D.D.D.D.D.D.D.      S.S.S.S.S.e.e.                                                          e.e.e.e.e.e.e.    D.D.D.D.D.D.D.D.",
"D.D.D.D.D.D.D.D.D.D.D.          S.S.e.e.e.e.e.e.e.e.e.e.e.e.e.e.e.e.e.e.e.e.e.e.e.e.e.e.e.e.e.e.e.          D.D.D.D.D.D.D.D.D.D.",
"D.D.D.D.D.D.D.D.D.D.D.          S.S.e.e.e.e.e.e.e.e.e.e.e.e.e.e.e.e.e.e.e.e.e.e.e.e.e.e.e.e.e.e.e.          D.D.D.D.D.D.D.D.D.D.",
"D.D.D.D.D.D.D.D.D.D.D.D.D.D.D.D.                                                                  D.D.D.D.D.D.D.D.D.D.D.D.D.D.D.",
"D.D.D.D.D.D.D.D.D.D.D.D.D.D.D.D.                                                                  D.D.D.D.D.D.D.D.D.D.D.D.D.D.D.",
"D.D.D.D.D.D.D.D.D.D.D.D.D.D.D.D.                                                                  D.D.D.D.D.D.D.D.D.D.D.D.D.D.D.",
"D.D.D.D.D.D.D.D.D.D.D.D.D.D.D.D.D.D.D.D.D.D.D.D.D.D.D.D.D.D.D.D.D.D.D.D.D.D.D.D.D.D.D.D.D.D.D.D.D.D.D.D.D.D.D.D.D.D.D.D.D.D.D.D.",
"D.D.D.D.D.D.D.D.D.D.D.D.D.D.D.D.D.D.D.D.D.D.D.D.D.D.D.D.D.D.D.D.D.D.D.D.D.D.D.D.D.D.D.D.D.D.D.D.D.D.D.D.D.D.D.D.D.D.D.D.D.D.D.D.",
"D.D.D.D.D.D.D.D.D.D.D.D.D.D.D.D.D.D.D.D.D.D.D.D.D.D.D.D.D.D.D.D.D.D.D.D.D.D.D.D.D.D.D.D.D.D.D.D.D.D.D.D.D.D.D.D.D.D.D.D.D.D.D.D.",
"D.D.D.D.D.D.D.D.D.D.D.D.D.D.D.D.D.D.D.D.D.D.D.D.D.D.D.D.D.D.D.D.D.D.D.D.D.D.D.D.D.D.D.D.D.D.D.D.D.D.D.D.D.D.D.D.D.D.D.D.D.D.D.D.",
"D.D.D.D.D.D.D.D.D.D.D.D.D.D.D.D.D.D.D.D.D.D.D.D.D.D.D.D.D.D.D.D.D.D.D.D.D.D.D.D.D.D.D.D.D.D.D.D.D.D.D.D.D.D.D.D.D.D.D.D.D.D.D.D.",
"D.D.D.D.D.D.D.D.D.D.D.D.D.D.D.D.D.D.D.D.D.D.D.D.D.D.D.D.D.D.D.D.D.D.D.D.D.D.D.D.D.D.D.D.D.D.D.D.D.D.D.D.D.D.D.D.D.D.D.D.D.D.D.D.",
"D.D.D.D.D.D.D.D.D.D.D.D.D.D.D.D.D.D.D.D.D.D.D.D.D.D.D.D.D.D.D.D.D.D.D.D.D.D.D.D.D.D.D.D.D.D.D.D.D.D.D.D.D.D.D.D.D.D.D.D.D.D.D.D."
};
