/* XPM */
static char *result[] = {
/* columns rows colors chars-per-pixel */
"64 64 142 2 ",
"   c #140700",
".  c #160901",
"X  c #1A0D04",
"o  c #1D1105",
"O  c #1E120A",
"+  c #221506",
"@  c #261906",
"#  c #21150C",
"$  c #26190D",
"%  c #291D0C",
"&  c #261A12",
"*  c #291D14",
"=  c #2D210A",
"-  c #31250B",
";  c #362A0E",
":  c #392D0F",
">  c #2E2213",
",  c #2E2219",
"<  c #312515",
"1  c #372B13",
"2  c #3A2E10",
"3  c #30241B",
"4  c #34281F",
"5  c #3A2D1A",
"6  c #3E311D",
"7  c #362A21",
"8  c #3A2E25",
"9  c #3C3127",
"0  c #3E3229",
"q  c #49270E",
"w  c #42361C",
"e  c #45391B",
"r  c #493D1D",
"t  c #413525",
"y  c #463922",
"u  c #483C20",
"i  c #41352B",
"p  c #45392D",
"a  c #453A31",
"s  c #493D34",
"d  c #6A4B0F",
"f  c #4D4125",
"g  c #524625",
"h  c #514628",
"j  c #564A2C",
"k  c #594D2D",
"l  c #5C502E",
"z  c #4C4035",
"x  c #4E433A",
"c  c #514536",
"v  c #52463A",
"b  c #564B3C",
"n  c #594E3F",
"m  c #5D5232",
"M  c #5C503D",
"N  c #624B24",
"B  c #625635",
"V  c #655A36",
"C  c #695D36",
"Z  c #665939",
"A  c #695D3A",
"S  c #6D623E",
"D  c #544940",
"F  c #594E44",
"G  c #5D5244",
"H  c #5F544A",
"J  c #615545",
"K  c #665A47",
"L  c #60554A",
"P  c #665B4D",
"I  c #6B5F4C",
"U  c #665D54",
"Y  c #695E51",
"T  c #6E634F",
"R  c #726641",
"E  c #766A44",
"W  c #7B6E47",
"Q  c #7C6F48",
"!  c #6C6153",
"~  c #6E665F",
"^  c #726756",
"/  c #756953",
"(  c #786D51",
")  c #726758",
"_  c #766B5B",
"`  c #796E5D",
"'  c #7D725B",
"]  c #716862",
"[  c #7F7462",
"{  c #79716A",
"}  c #9C490B",
"|  c #A87C1A",
" . c #857A4E",
".. c #887C4E",
"X. c #9D7444",
"o. c #8B7F53",
"O. c #817664",
"+. c #867B65",
"@. c #877D6C",
"#. c #8A7F6A",
"$. c #8E8154",
"%. c #918456",
"&. c #958857",
"*. c #998C5A",
"=. c #A18147",
"-. c #8F846D",
";. c #91866E",
":. c #95896E",
">. c #8E8474",
",. c #978B73",
"<. c #998E73",
"1. c #948B7C",
"2. c #9D9276",
"3. c #9E9379",
"4. c #A39663",
"5. c #AA9D68",
"6. c #A1967B",
"7. c #AFA473",
"8. c #D3A64B",
"9. c #9C9484",
"0. c #A99E80",
"q. c #AEA384",
"w. c #B0A585",
"e. c #B2A788",
"r. c #B5AB8A",
"t. c #B9AE8C",
"y. c #AFAAA6",
"u. c #B7B1A7",
"i. c #B6B1AF",
"p. c #D8CE87",
"a. c #D1CAB4",
"s. c #D3CDB9",
"d. c #D3CFC9",
"f. c #D3D0CF",
"g. c #DED9C9",
"h. c #D8D6D4",
"j. c #EFECE5",
"k. c #EFEEE9",
"l. c #F0EFEF",
"z. c #F7F6F6",
"x. c #FFFFFE",
"c. c None",
/* pixels */
"c.c.c.c.c.c.c.c.c.c.c.c.c.c.c.c.c.c.c.c.c.c.c.c.c.c.c.c.c.c.c.c.c.c.c.c.c.c.c.c.c.c.c.c.c.c.c.c.c.c.c.c.c.c.c.c.c.c.c.c.c.c.c.c.",
"c.c.c.c.c.c.c.c.c.c.c.c.c.c.c.c.c.c.c.c.c.c.c.c.c.c.c.c.c.c.c.c.c.c.c.c.c.c.c.c.c.c.c.c.c.c.c.c.c.c.c.c.c.c.c.c.c.c.c.c.c.c.c.c.",
"c.c.c.c.c.c.c.c.c.c.c.c.c.c.c.c.c.c.c.c.c.c.c.c.c.c.c.c.c.c.c.c.c.c.c.c.c.c.c.c.c.c.c.c.c.c.c.c.c.c.c.c.c.c.c.c.c.c.c.c.c.c.c.c.",
"c.c.c.c.c.c.c.c.c.c.c.c.c.c.c.c.c.c.c.c.c.c.c.c.c.c.c.c.c.c.c.c.c.c.c.c.c.c.c.c.c.c.c.c.c.c.c.c.c.c.c.c.c.c.c.c.c.c.c.c.c.c.c.c.",
"c.c.c.c.c.c.c.c.c.c.c.c.c.c.c.c.c.c.c.c.c.c.c.c.c.c.c.c.c.c.c.c.c.c.c.c.c.c.c.c.c.c.c.c.c.c.c.c.c.c.c.c.c.c.c.c.c.c.c.c.c.c.c.c.",
"c.c.c.c.c.c.c.c.c.c.c.c.c.c.c.c.c.c.c.c.c.c.c.c.c.c.c.c.c.c.c.c.c.c.c.c.c.c.c.c.c.c.c.c.c.c.c.c.c.c.c.c.c.c.c.c.c.c.c.c.c.c.c.c.",
"c.c.c.c.c.c.c.c.c.c.c.c.c.c.c.c.c.c.c.c.c.c.c.c.c.c.c.c.c.c.c.c.c.c.c.c.c.c.c.c.c.c.c.c.c.c.c.c.c.c.c.c.c.c.c.c.c.c.c.c.c.c.c.c.",
"c.c.c.c.c.c.c.c.c.c.c.c.c.c.c.c.c.c.c.c.c.c.c.c.c.c.c.c.c.c.c.c.c.c.c.c.c.c.c.c.c.c.c.c.c.c.c.c.c.c.c.c.c.c.c.c.c.c.c.c.c.c.c.c.",
"c.c.c.c.c.c.c.c.c.c.c.c.c.c.c.c.c.c.c.c.c.c.c.c.c.c.c.c.c.c.c.c.c.c.c.c.c.c.c.c.c.c.c.c.c.c.c.c.c.c.c.c.c.c.c.c.c.c.c.c.c.c.c.c.",
"c.c.c.c.c.c.c.c.c.c.c.c.c.c.c.c.c.c.c.c.c.c.c.c.c.c.c.c.c.c.c.c.c.c.c.c.c.c.c.c.c.c.c.c.c.c.c.c.c.c.c.c.c.c.c.c.c.c.c.c.c.c.c.c.",
"c.c.c.c.c.c.c.c.c.c.c.c.c.c.c.c.c.c.c.c.c.c.c.c.c.c.c.c.c.c.c.c.c.c.c.c.c.c.c.c.c.c.c.c.c.c.c.c.c.c.c.c.c.c.c.c.c.c.c.c.c.c.c.c.",
"c.c.c.c.c.c.c.c.c.c.c.c.c.c.c.c.c.c.c.c.c.c.c.c.c.c.c.c.c.c.c.c.c.c.c.c.c.c.c.c.c.c.c.c.c.c.c.c.c.c.c.c.c.c.c.c.c.c.c.c.c.c.c.c.",
"c.c.c.c.c.c.c.c.c.c.c.c.c.c.c.c.c.c.c.c.c.c.c.c.c.c.c.c.c.c.c.c.c.c.c.c.c.c.c.c.c.c.c.c.c.c.  c.c.c.c.c.c.c.c.c.c.c.c.c.c.c.c.c.",
"c.c.c.c.c.c.c.c.c.c.c.c.c.c.c.c.c.c.c.c.c.c.c.c.c.c.c.c.c.c.c.c.c.c.c.c.c.c.c.c.c.c.c.c.c.c.x.. c.c.c.c.c.c.c.c.c.c.c.c.c.c.c.c.",
"c.c.c.c.c.c.c.c.c.c.c.c.c.c.c.c.c.c.c.c.c.c.c.c.c.c.c.c.c.c.c.c.c.c.3 3 c.c.c.c.c.c.c.c.. c c.c.c.c.c.c.c.c.c.c.c.c.c.c.c.c.c.c.",
"c.c.c.c.c.c.c.c.c.c.c.c.c.c.c.c.c.c.c.c.c.c.c.c.c.c.c.c.c.c.c.c.c.0 v s c.c.c.c.c.c.c.c.  G c.c.c.c.c.c.c.c.c.c.c.c.c.c.c.c.c.c.",
"c.c.c.c.c.c.c.c.c.c.c.c.c.c.c.c.c.c.c.c.c.c.c.c.c.c.c.c.c.z ;.& & t t ) J i , c.c.c.c.  )   c.c.c.c.c.c.c.c.c.c.c.c.c.c.c.c.c.c.",
"c.c.c.c.c.c.c.c.c.c.c.c.c.c.c.c.c.c.c.c.c.c.c.c.c.c.c.c.c.* p x x :.6.{ 3 9 8 7 c.p c.O s   c.c.c.c.c.c.c.c.c.c.c.c.c.c.c.c.c.c.",
"c.c.c.c.c.c.c.c.c.c.c.c.c.c.c.c.c.c.c.c.c.c.c.O X c.c.X J x.j.r.r.` X G . # 7 7 4 )   7 . c.c.c.c.c.c.c.c.c.c.c.c.c.c.c.c.c.c.c.",
"c.c.c.c.c.c.c.c.c.c.c.c.c.c.c.c.c.c.c.c.c.2 - x.H c.  [ u.t.q.[ O.# [ 6.3 ;.t.q.4 ,   4 c.c.c.c.c.c.c.c.c.c.c.c.c.c.c.c.c.c.c.c.",
"c.c.c.c.c.c.c.c.c.c.3 3 , 4 , 3 3 3 3 B r.*.u D X X 7 @.3.O.] G b 3 * p G H v H @.#.#.<.d.  c.c.c.c.c.c.c.c.c.c.c.c.c.c.c.c.c.c.",
"c.c.c.c.c.c.c.c.c.c.i.x.Y x.G [ o [ 4 5.5.e `   , O 0 ! O.D D x   p 3   D & 8 b v 7 3 O.[ +.c.c.c.c.c.c.c.c.c.c.c.c.c.c.c.c.c.c.",
"c.c.c.c.c.c.c.c.c.c.! ,.7 ,.4 0 . 0 # C V w `   H s D ^ G D D 8 i +.P G & q } X., x P a P G c.c.c.c.c.c.c.c.c.c.c.c.c.c.c.c.c.c.",
"c.c.c.c.c.c.c.c.c.c.              . . % f O x   , s D Y D s 4 , 4 X   D , s } 4 D 0 3 D D i c.c.c.c.c.c.c.c.c.c.c.c.c.c.c.c.c.c.",
"c.c.c.c.c.c.c.c.c.c.c.c.c.c.c.c.c.c.c.c.+ y # 3 . * i x D z -.! , 9 9 * D D a D D G a 7 & # c.c.c.c.c.c.c.c.c.c.c.c.c.c.c.c.c.c.",
"c.c.c.c.c.c.c.c.c.c.c.c.c.c.c.c.c.c.c.c.c.c.c.      & 4 4 * D v 3 D D D 3 3 3 3 4     c.c.c.c.c.c.c.    . c.c.c.c.c.c.c.c.c.c.c.",
"c.c.c.c.c.c.c.c.c.c.c.c.c.c.c.c.c.c.c.c.c.c.c.i 9 i , # & # , *   * , ,           c.c.X # & c.c.c.  s.k...$ c.c.c.c.c.c.c.c.c.c.",
"c.c.c.c.c.c.c.c.c.c.c.c.c.c.c.c.c., c.4 v t.t.x.@.q.;.O.[ [ [ t.t.#.t.O.[               D L D     $.5.C e S   c.c.c.c.c.c.c.c.c.",
"c.c.c.c.c.c.c.c.c.c.c.c.c.c.c.c.c.P p _ ;.t.q.>.O.+.O.F F _ F H H F H G [ ,.7.p.p.) p.p.X O O .   # $ A k %   c.c.c.c.c.c.c.c.c.",
"c.c.c.c.c.c.c.c.c.c.c.c.c.c.c.c.c.< ^ g.s.6.[ ) D ` L F H P v s D z ~ x D Y X.8.8.D 8.8.) ) 0.) ) 3.e.M j = c.c.c.c.c.c.c.c.c.c.",
"c.c.c.c.c.c.c.c.c.c.c.c.c.c.c.c.  p n ! J z s 9 v L F x s c x 4 ! p s.p D D =.8.8.D 8.8.D D L D D L M 5 @ = c.c.c.c.c.c.c.c.c.c.",
"c.c.c.c.c.c.c.c.c.c.c.c.c.c.c.3 3 t.;.[ O.[ ' O.7 , 4 , 4 0 & 3 , X O.' t.) =.8.8.D | | D s         5 % -   c.c.c.c.c.c.c.c.c.c.",
"c.c.c.c.c.c.c.c.c.c.c.c.8 v v / /               z v v p 8 , 0 a s a O 4 , 7 N | | a d d & O 8 8 v v c z @   c.c.c.c.c.c.c.c.c.c.",
"c.c.c.c.c.c.c.c.c.c.c.4 7   $ 5.5.    %.5.  $ 5.o           . q.            (       3                   _ i c.c.c.c.c.c.c.c.c.c.",
"c.c.c.c.c.c.c.c.c.c.c.c.  c.      g #     j %   k 3 4 3 K q.-.) , ` ` ` ` H F 7 ` t 3 3     w     - c.c.  &   c.c.c.c.c.c.c.c.c.",
"c.c.c.c.c.c.c.c.c.c.c.c.5 5.&..     Q 5.%.S m   l.I ) <.! ! D O [ x.r.a x.<.> D D D t.[ [ i   . : V c.  c.c.c.c.c.c.c.c.c.c.c.c.",
"c.c.c.c.c.c.c.c.c.c.c.c.. X % A X 4.y X X X %   e.D D Y D ] h.7 r.8 7 y.8 G K 0 z.D O.! D *   . A %   A   c.c.c.c.c.c.c.c.c.c.c.",
"c.c.c.c.c.c.c.c.c.c.c.c.5 V =   R & * i i * &   q.D D Y D z x 7 1.f.` K D ) ! z x D O.D D * * %.X   g % c.c.c.c.c.c.c.c.c.c.c.c.",
"c.c.c.c.c.c.c.c.c.c.c.  o.S g j < * p # # 7 a   +.D D F D D -.4 J Y 0.) b P n 0 3.D L v D * * 6 Q % % X   c.c.c.c.c.c.c.c.c.c.c.",
"c.c.c.c.c.c.c.c.c.c.c.c..   . f . L , H F # G   ` x D s b 0 s 3 D 7 s.9.D x M 9 a D D a D & O , h A     f y c.c.c.c.c.c.c.c.c.c.",
"c.c.c.c.c.c.c.c.c.c.c.c.c.@   g X p & D F X z   b x s p D x P 4 Y _ 2.G +.T 0 a Y a D a i &   i . E   > e   c.c.c.c.c.c.c.c.c.c.",
"c.c.c.c.c.c.c.c.c.c.c.c.= r % = + x p * * i z   . # & & 7 # 4 4 s , z z , s 8 o 4 > & & & $ O 3 > f @ = . c.c.c.c.c.c.c.c.c.c.c.",
"c.c.c.c.c.c.c.c.c.c.c.c.t k     ; 8 s v v s 9   % + .   O & * * * > * * * * * * * X     a s 8 & A $     c.c.c.c.c.c.c.c.c.c.c.c.",
"c.c.c.c.c.c.c.c.c.c.c.c.c.  o     ; + X # 1 %.Z X . X     1 1 .   = :     = . .   = V 6 o X . : X . . w j   c.c.c.c.c.c.c.c.c.c.",
"c.c.c.c.c.c.c.c.c.c.c.c.c.  :     . = S  .%.    . - 2 .   < B ;     : @   o : .   . . Z S k : .   - : @ . c.c.c.c.c.c.c.c.c.c.c.",
"c.c.c.c.c.c.c.c.c.c.c.c.c.c.X Z X . f ; @     A : X X . . c.c.c.c.c.c.c.c.c.o .   . : 5 . o ; B   c.c.c.c.c.c.c.c.c.c.c.c.c.c.c.",
"c.c.c.c.c.c.c.c.c.c.c.c.c.c.c.% . c.$ X X c.c.% o c.c.c.c.c.c.c.c.c.c.c.c.c.c.c.c.c.X o   . X $ c.c.c.c.c.c.c.c.c.c.c.c.c.c.c.c.",
"c.c.c.c.c.c.c.c.c.c.c.c.c.c.c.c.c.c.c.c.c.c.c.c.c.c.c.c.c.c.c.c.c.c.c.c.c.c.c.c.c.c.c.c.c.c.c.c.c.c.c.c.c.c.c.c.c.c.c.c.c.c.c.c.",
"c.c.c.c.c.c.c.c.c.c.c.c.c.c.c.c.c.c.c.c.c.c.c.c.c.c.c.c.c.c.c.c.c.c.c.c.c.c.c.c.c.c.c.c.c.c.c.c.c.c.c.c.c.c.c.c.c.c.c.c.c.c.c.c.",
"c.c.c.c.c.c.c.c.c.c.c.c.c.c.c.c.c.c.c.c.c.c.c.c.c.c.c.c.c.c.c.c.c.c.c.c.c.c.c.c.c.c.c.c.c.c.c.c.c.c.c.c.c.c.c.c.c.c.c.c.c.c.c.c.",
"c.c.c.c.c.c.c.c.c.c.c.c.c.c.c.c.c.c.c.c.c.c.c.c.c.c.c.c.c.c.c.c.c.c.c.c.c.c.c.c.c.c.c.c.c.c.c.c.c.c.c.c.c.c.c.c.c.c.c.c.c.c.c.c.",
"c.c.c.c.c.c.c.c.c.c.c.c.c.c.c.c.c.c.c.c.c.c.c.c.c.c.c.c.c.c.c.c.c.c.c.c.c.c.c.c.c.c.c.c.c.c.c.c.c.c.c.c.c.c.c.c.c.c.c.c.c.c.c.c.",
"c.c.c.c.c.c.c.c.c.c.c.c.c.c.c.c.c.c.c.c.c.c.c.c.c.c.c.c.c.c.c.c.c.c.c.c.c.c.c.c.c.c.c.c.c.c.c.c.c.c.c.c.c.c.c.c.c.c.c.c.c.c.c.c.",
"c.c.c.c.c.c.c.c.c.c.c.c.c.c.c.c.c.c.c.c.c.c.c.c.c.c.c.c.c.c.c.c.c.c.c.c.c.c.c.c.c.c.c.c.c.c.c.c.c.c.c.c.c.c.c.c.c.c.c.c.c.c.c.c.",
"c.c.c.c.c.c.c.c.c.c.c.c.c.c.c.c.c.c.c.c.c.c.c.c.c.c.c.c.c.c.c.c.c.c.c.c.c.c.c.c.c.c.c.c.c.c.c.c.c.c.c.c.c.c.c.c.c.c.c.c.c.c.c.c.",
"c.c.c.c.c.c.c.c.c.c.c.c.c.c.c.c.c.c.c.c.c.c.c.c.c.c.c.c.c.c.c.c.c.c.c.c.c.c.c.c.c.c.c.c.c.c.c.c.c.c.c.c.c.c.c.c.c.c.c.c.c.c.c.c.",
"c.c.c.c.c.c.c.c.c.c.c.c.c.c.c.c.c.c.c.c.c.c.c.c.c.c.c.c.c.c.c.c.c.c.c.c.c.c.c.c.c.c.c.c.c.c.c.c.c.c.c.c.c.c.c.c.c.c.c.c.c.c.c.c.",
"c.c.c.c.c.c.c.c.c.c.c.c.c.c.c.c.c.c.c.c.c.c.c.c.c.c.c.c.c.c.c.c.c.c.c.c.c.c.c.c.c.c.c.c.c.c.c.c.c.c.c.c.c.c.c.c.c.c.c.c.c.c.c.c.",
"c.c.c.c.c.c.c.c.c.c.c.c.c.c.c.c.c.c.c.c.c.c.c.c.c.c.c.c.c.c.c.c.c.c.c.c.c.c.c.c.c.c.c.c.c.c.c.c.c.c.c.c.c.c.c.c.c.c.c.c.c.c.c.c.",
"c.c.c.c.c.c.c.c.c.c.c.c.c.c.c.c.c.c.c.c.c.c.c.c.c.c.c.c.c.c.c.c.c.c.c.c.c.c.c.c.c.c.c.c.c.c.c.c.c.c.c.c.c.c.c.c.c.c.c.c.c.c.c.c.",
"c.c.c.c.c.c.c.c.c.c.c.c.c.c.c.c.c.c.c.c.c.c.c.c.c.c.c.c.c.c.c.c.c.c.c.c.c.c.c.c.c.c.c.c.c.c.c.c.c.c.c.c.c.c.c.c.c.c.c.c.c.c.c.c.",
"c.c.c.c.c.c.c.c.c.c.c.c.c.c.c.c.c.c.c.c.c.c.c.c.c.c.c.c.c.c.c.c.c.c.c.c.c.c.c.c.c.c.c.c.c.c.c.c.c.c.c.c.c.c.c.c.c.c.c.c.c.c.c.c.",
"c.c.c.c.c.c.c.c.c.c.c.c.c.c.c.c.c.c.c.c.c.c.c.c.c.c.c.c.c.c.c.c.c.c.c.c.c.c.c.c.c.c.c.c.c.c.c.c.c.c.c.c.c.c.c.c.c.c.c.c.c.c.c.c.",
"c.c.c.c.c.c.c.c.c.c.c.c.c.c.c.c.c.c.c.c.c.c.c.c.c.c.c.c.c.c.c.c.c.c.c.c.c.c.c.c.c.c.c.c.c.c.c.c.c.c.c.c.c.c.c.c.c.c.c.c.c.c.c.c."
};
