/* XPM */
static char *result[] = {
/* columns rows colors chars-per-pixel */
"64 64 142 2 ",
"   c #140700",
".  c #160901",
"X  c #1A0D04",
"o  c #1D1105",
"O  c #1E120A",
"+  c #221506",
"@  c #261906",
"#  c #21150C",
"$  c #26190D",
"%  c #291D0C",
"&  c #261A12",
"*  c #291D14",
"=  c #2D210A",
"-  c #31250B",
";  c #362A0E",
":  c #392D0F",
">  c #2E2213",
",  c #2E2219",
"<  c #312515",
"1  c #372B13",
"2  c #3A2E10",
"3  c #30241B",
"4  c #34281F",
"5  c #3A2D1A",
"6  c #3E311D",
"7  c #362A21",
"8  c #3A2E25",
"9  c #3C3127",
"0  c #3E3229",
"q  c #49270E",
"w  c #42361C",
"e  c #45391B",
"r  c #493D1D",
"t  c #413525",
"y  c #463922",
"u  c #483C20",
"i  c #41352B",
"p  c #45392D",
"a  c #453A31",
"s  c #493D34",
"d  c #6A4B0F",
"f  c #4D4125",
"g  c #524625",
"h  c #514628",
"j  c #564A2C",
"k  c #594D2D",
"l  c #5C502E",
"z  c #4C4035",
"x  c #4E433A",
"c  c #514536",
"v  c #52463A",
"b  c #564B3C",
"n  c #594E3F",
"m  c #5D5232",
"M  c #5C503D",
"N  c #624B24",
"B  c #625635",
"V  c #655A36",
"C  c #695D36",
"Z  c #665939",
"A  c #695D3A",
"S  c #6D623E",
"D  c #544940",
"F  c #594E44",
"G  c #5D5244",
"H  c #5F544A",
"J  c #615545",
"K  c #665A47",
"L  c #60554A",
"P  c #665B4D",
"I  c #6B5F4C",
"U  c #665D54",
"Y  c #695E51",
"T  c #6E634F",
"R  c #726641",
"E  c #766A44",
"W  c #7B6E47",
"Q  c #7C6F48",
"!  c #6C6153",
"~  c #6E665F",
"^  c #726756",
"/  c #756953",
"(  c #786D51",
")  c #726758",
"_  c #766B5B",
"`  c #796E5D",
"'  c #7D725B",
"]  c #716862",
"[  c #7F7462",
"{  c #79716A",
"}  c #9C490B",
"|  c #A87C1A",
" . c #857A4E",
".. c #887C4E",
"X. c #9D7444",
"o. c #8B7F53",
"O. c #817664",
"+. c #867B65",
"@. c #877D6C",
"#. c #8A7F6A",
"$. c #8E8154",
"%. c #918456",
"&. c #958857",
"*. c #998C5A",
"=. c #A18147",
"-. c #8F846D",
";. c #91866E",
":. c #95896E",
">. c #8E8474",
",. c #978B73",
"<. c #998E73",
"1. c #948B7C",
"2. c #9D9276",
"3. c #9E9379",
"4. c #A39663",
"5. c #AA9D68",
"6. c #A1967B",
"7. c #AFA473",
"8. c #D3A64B",
"9. c #9C9484",
"0. c #A99E80",
"q. c #AEA384",
"w. c #B0A585",
"e. c #B2A788",
"r. c #B5AB8A",
"t. c #B9AE8C",
"y. c #AFAAA6",
"u. c #B7B1A7",
"i. c #B6B1AF",
"p. c #D8CE87",
"a. c #D1CAB4",
"s. c #D3CDB9",
"d. c #D3CFC9",
"f. c #D3D0CF",
"g. c #DED9C9",
"h. c #D8D6D4",
"j. c #EFECE5",
"k. c #EFEEE9",
"l. c #F0EFEF",
"z. c #F7F6F6",
"x. c #FFFFFE",
"c. c None",
/* pixels */
"c.c.c.c.c.c.c.c.c.c.c.c.c.c.c.c.c.c.c.c.c.c.c.c.c.c.c.c.c.c.c.c.c.c.c.c.c.c.c.c.c.c.c.c.c.c.c.c.c.c.c.c.c.c.c.c.c.c.c.c.c.c.c.c.",
"c.c.c.c.c.c.c.c.c.c.c.c.c.c.c.c.c.c.c.c.c.c.c.c.c.c.c.c.c.c.c.c.c.c.c.c.c.c.c.c.c.c.c.c.c.c.c.c.c.c.c.c.c.c.c.c.c.c.c.c.c.c.c.c.",
"c.c.c.c.c.c.c.c.c.c.c.c.c.c.c.c.c.c.c.c.c.c.c.c.c.c.c.c.c.c.c.c.c.c.c.c.c.c.c.c.c.c.c.c.c.c.c.c.c.c.c.c.c.c.c.c.c.c.c.c.c.c.c.c.",
"c.c.c.c.c.c.c.c.c.c.c.c.c.c.c.c.c.c.c.c.c.c.c.c.c.c.c.c.c.c.c.c.c.c.c.c.c.c.c.c.c.c.c.c.c.c.c.c.c.c.c.c.c.c.c.c.c.c.c.c.c.c.c.c.",
"c.c.c.c.c.c.c.c.c.c.c.c.c.c.c.c.c.c.c.c.c.c.c.c.c.c.c.c.c.c.c.c.c.c.c.c.c.c.c.c.c.c.c.c.c.c.c.c.c.c.c.c.c.c.c.c.c.c.c.c.c.c.c.c.",
"c.c.c.c.c.c.c.c.c.c.c.c.c.c.c.c.c.c.c.c.c.c.c.c.c.c.c.c.c.c.c.c.c.c.c.c.c.c.c.c.c.c.c.c.c.c.c.c.c.c.c.c.c.c.c.c.c.c.c.c.c.c.c.c.",
"c.c.c.c.c.c.c.c.c.c.c.c.c.c.c.c.c.c.c.c.c.c.c.c.c.c.c.c.c.c.c.c.c.c.c.c.c.c.c.c.c.c.c.c.c.c.c.c.c.c.c.c.c.c.c.c.c.c.c.c.c.c.c.c.",
"c.c.c.c.c.c.c.c.c.c.c.c.c.c.c.c.c.c.c.c.c.c.c.c.c.c.c.c.c.c.c.c.c.c.c.c.c.c.c.c.c.c.c.c.c.c.c.c.c.c.c.c.c.c.c.c.c.c.c.c.c.c.c.c.",
"c.c.c.c.c.c.c.c.c.c.c.c.c.c.c.c.c.c.c.c.c.c.c.c.c.c.c.c.c.c.c.c.c.c.c.c.c.c.c.c.c.c.c.c.c.c.c.c.c.c.c.c.c.c.c.c.c.c.c.c.c.c.c.c.",
"c.c.c.c.c.c.c.c.c.c.c.c.c.c.c.c.c.c.c.c.c.c.c.c.c.c.c.c.c.c.c.c.c.c.c.c.c.c.c.c.c.c.c.c.c.c.c.c.c.c.c.c.c.c.c.c.c.c.c.c.c.c.c.c.",
"c.c.c.c.c.c.c.c.c.c.c.c.c.c.c.c.c.c.c.c.c.c.c.c.c.c.c.c.c.c.c.c.c.c.c.c.c.c.c.c.c.c.c.c.c.c.c.c.c.c.c.c.c.c.c.c.c.c.c.c.c.c.c.c.",
"c.c.c.c.c.c.c.c.c.c.c.c.c.c.c.c.c.c.c.c.c.c.c.c.c.c.c.c.c.c.c.c.c.c.c.c.c.c.c.c.c.c.c.c.c.c.c.c.c.c.c.c.c.c.c.c.c.c.c.c.c.c.c.c.",
"c.c.c.c.c.c.c.c.c.c.c.c.c.c.c.c.c.c.c.c.c.c.c.c.c.c.c.c.c.c.c.c.c.c.c.c.c.c.c.c.c.c.c.c.c.c.c.c.c.c.c.c.c.c.c.c.c.c.c.c.c.c.c.c.",
"c.c.c.c.c.c.c.c.c.c.c.c.c.c.c.c.c.c.c.c.c.c.c.c.c.c.c.c.c.c.c.c.c.c.c.c.c.c.c.c.c.c.c.c.c.c.c.c.c.c.c.c.c.c.c.c.c.c.c.c.c.c.c.c.",
"c.c.c.c.c.c.c.c.c.c.c.c.c.c.c.c.c.c.c.c.c.c.c.c.c.c.c.c.c.c.c.c.c.c.c.c.c.c.c.c.c.c.c.c.c.c.  c.c.c.c.c.c.c.c.c.c.c.c.c.c.c.c.c.",
"c.c.c.c.c.c.c.c.c.c.c.c.c.c.c.c.c.c.c.c.c.c.c.c.c.c.c.c.c.c.c.c.c.c.c.c.c.c.c.c.c.c.c.c.c.c.x.  c.c.c.c.c.c.c.c.c.c.c.c.c.c.c.c.",
"c.c.c.c.c.c.c.c.c.c.c.c.c.c.c.c.c.c.c.c.c.c.c.c.c.c.c.c.c.c.c.c.c.c.3 3 c.c.c.c.c.c.c.c.. v c.c.c.c.c.c.c.c.c.c.c.c.c.c.c.c.c.c.",
"c.c.c.c.c.c.c.c.c.c.c.c.c.c.c.c.c.c.c.c.c.c.c.c.c.c.c.c.c.c.c.c.c.t v a c.c.c.c.c.c.c.c.  G c.c.c.c.c.c.c.c.c.c.c.c.c.c.c.c.c.c.",
"c.c.c.c.c.c.c.c.c.c.c.c.c.c.c.c.c.c.c.c.c.c.c.c.c.c.c.c.c.z ;.& & t t _ L i , c.c.c.c.  ) . c.c.c.c.c.c.c.c.c.c.c.c.c.c.c.c.c.c.",
"c.c.c.c.c.c.c.c.c.c.c.c.c.c.c.c.c.c.c.c.c.c.c.c.c.c.c.c.c.* a x c ,.2.{ , 0 8 7 c.p c.O s   c.c.c.c.c.c.c.c.c.c.c.c.c.c.c.c.c.c.",
"c.c.c.c.c.c.c.c.c.c.c.c.c.c.c.c.c.c.c.c.c.c.c.O X c.c.O J z.j.r.r.` X G . # 7 7 3 )   8   c.c.c.c.c.c.c.c.c.c.c.c.c.c.c.c.c.c.c.",
"c.c.c.c.c.c.c.c.c.c.c.c.c.c.c.c.c.c.c.c.c.2 - x.H c.  [ u.t.q.[ O.# [ 6.3 ;.t.w.3 3 . , c.c.c.c.c.c.c.c.c.c.c.c.c.c.c.c.c.c.c.c.",
"c.c.c.c.c.c.c.c.c.c.3 , 3 3 3 3 3 3 , B r.*.u D X X 8 +.3.[ ` H D 3 * i H G v H #.#.#.<.f.  c.c.c.c.c.c.c.c.c.c.c.c.c.c.c.c.c.c.",
"c.c.c.c.c.c.c.c.c.c.i.x.Y x.F [ O [ 7 5.5.w ` . , O i ! [ D D v   p 3   b & 8 D D 7 3 [ [ +.c.c.c.c.c.c.c.c.c.c.c.c.c.c.c.c.c.c.",
"c.c.c.c.c.c.c.c.c.c.T ,.7 <.7 0 . 0 # Z C w `   L s D ! H D D 8 t #.Y F & q } X.3 x P a P G c.c.c.c.c.c.c.c.c.c.c.c.c.c.c.c.c.c.",
"c.c.c.c.c.c.c.c.c.c.                . % g O x   , s D Y D s , 3 3 X   D 3 s } 3 D 0 3 D D i c.c.c.c.c.c.c.c.c.c.c.c.c.c.c.c.c.c.",
"c.c.c.c.c.c.c.c.c.c.c.c.c.c.c.c.c.c.c.c.+ y # 3 . * 0 x D v -.! 3 9 9 * D D a D D G s 7 & # c.c.c.c.c.c.c.c.c.c.c.c.c.c.c.c.c.c.",
"c.c.c.c.c.c.c.c.c.c.c.c.c.c.c.c.c.c.c.c.c.c.c.  .   * 3 , * D v 3 D D D 3 3 3 3 ,     c.c.c.c.c.c.c.    . c.c.c.c.c.c.c.c.c.c.c.",
"c.c.c.c.c.c.c.c.c.c.c.c.c.c.c.c.c.c.c.c.c.c.c.t 0 t , $ # & , *   , , ,           c.c.X # & c.c.c.  s.k...@ c.c.c.c.c.c.c.c.c.c.",
"c.c.c.c.c.c.c.c.c.c.c.c.c.c.c.c.c.3 c.3 v t.t.x.@.w.;.{ [ [ [ t.t.#.t.[ O.        .     D L D     $.5.C e S . c.c.c.c.c.c.c.c.c.",
"c.c.c.c.c.c.c.c.c.c.c.c.c.c.c.c.c.P a _ ;.t.w.>.[ +.[ F F ) F L H F L F [ ,.7.p.p.) p.p.X O X     + $ A k %   c.c.c.c.c.c.c.c.c.",
"c.c.c.c.c.c.c.c.c.c.c.c.c.c.c.c.c.< / g.s.6.[ ) F _ L H H P v s D z ~ x b ! X.8.8.D 8.8.) ) 0.) ) 6.e.n j = c.c.c.c.c.c.c.c.c.c.",
"c.c.c.c.c.c.c.c.c.c.c.c.c.c.c.c.  p n Y J a a 0 D L F x z v x 7 ! p a.a D D =.8.8.D 8.8.D D L D D L G 5 @ = c.c.c.c.c.c.c.c.c.c.",
"c.c.c.c.c.c.c.c.c.c.c.c.c.c.c., 3 t.;.O.O.[ O.O.7 3 3 , 3 0 & , , X [ [ t.) =.8.8.D | | D s         4 % -   c.c.c.c.c.c.c.c.c.c.",
"c.c.c.c.c.c.c.c.c.c.c.c.8 v v / /       .       z v v p 8 , 0 a a a O , , 7 N | | a d d & O 8 8 v v c s @   c.c.c.c.c.c.c.c.c.c.",
"c.c.c.c.c.c.c.c.c.c.c., 8   $ 5.5.    %.5.  $ 5.X             q..   .   .   (       3                 . _ i c.c.c.c.c.c.c.c.c.c.",
"c.c.c.c.c.c.c.c.c.c.c.c.  c.      g +     j %   k < 3 3 K q.-.) , ` _ ` ` L F 4 _ i 3 <     e     - c.c.  &   c.c.c.c.c.c.c.c.c.",
"c.c.c.c.c.c.c.c.c.c.c.c.6 5.&.      W 5.$.R m   z.P ^ <.! ) b X [ x.t.p x.<., b D D t.O.O.i   . : V c.  c.c.c.c.c.c.c.c.c.c.c.c.",
"c.c.c.c.c.c.c.c.c.c.c.c.. X * A X 4.y X X X %   e.D D Y D ] h.7 r.8 7 y.8 G K 0 z.D O.! D *   . A %   A   c.c.c.c.c.c.c.c.c.c.c.",
"c.c.c.c.c.c.c.c.c.c.c.c.5 V = . R * * i i * &   w.D D Y D z x 7 1.f._ P b _ ! s x D O.D D & > %.X . g % c.c.c.c.c.c.c.c.c.c.c.c.",
"c.c.c.c.c.c.c.c.c.c.c.  o.S g j , * i # # 3 a   +.D D F D F >.4 L U 0._ D P b t 3.D L D D & * 9 Q % = .   c.c.c.c.c.c.c.c.c.c.c.",
"c.c.c.c.c.c.c.c.c.c.c.c..   . f X L 3 G G # G   ` x D s D 0 s , b 7 s.9.D v F 9 a D D a D & O , p A     f y c.c.c.c.c.c.c.c.c.c.",
"c.c.c.c.c.c.c.c.c.c.c.c.c.@ . g . p & F F X z   b z s a D x P 7 I _ 2.G +.I t a Y a D a a &   t . W   > e   c.c.c.c.c.c.c.c.c.c.",
"c.c.c.c.c.c.c.c.c.c.c.c.% r % = + z p & * 0 x     $ & & 7 # 7 3 s 3 z a 3 s 8 o , , & & & # O 3 < f @ =   c.c.c.c.c.c.c.c.c.c.c.",
"c.c.c.c.c.c.c.c.c.c.c.c.t j     : 8 s v v s 9   % + .   O * * * * * * * * * * * * X     a a 8 & V @     c.c.c.c.c.c.c.c.c.c.c.c.",
"c.c.c.c.c.c.c.c.c.c.c.c.c.  +     ; + X + 1 %.Z X . . .   : : .   - : .   = . . . = V 6 o X . : X . . y j   c.c.c.c.c.c.c.c.c.c.",
"c.c.c.c.c.c.c.c.c.c.c.c.c.  :     . % S  .%.    . - 2 .   > B ;   . : +   o : .   . . Z S l :     - : + . c.c.c.c.c.c.c.c.c.c.c.",
"c.c.c.c.c.c.c.c.c.c.c.c.c.c.X A X . h - %     A 2 X X . . c.c.c.c.c.c.c.c.c.o .   . : 5 . o ; B   c.c.c.c.c.c.c.c.c.c.c.c.c.c.c.",
"c.c.c.c.c.c.c.c.c.c.c.c.c.c.c.$ . c.$ X X c.c.% o c.c.c.c.c.c.c.c.c.c.c.c.c.c.c.c.c.o X   . X % c.c.c.c.c.c.c.c.c.c.c.c.c.c.c.c.",
"c.c.c.c.c.c.c.c.c.c.c.c.c.c.c.c.c.c.c.c.c.c.c.c.c.c.c.c.c.c.c.c.c.c.c.c.c.c.c.c.c.c.c.c.c.c.c.c.c.c.c.c.c.c.c.c.c.c.c.c.c.c.c.c.",
"c.c.c.c.c.c.c.c.c.c.c.c.c.c.c.c.c.c.c.c.c.c.c.c.c.c.c.c.c.c.c.c.c.c.c.c.c.c.c.c.c.c.c.c.c.c.c.c.c.c.c.c.c.c.c.c.c.c.c.c.c.c.c.c.",
"c.c.c.c.c.c.c.c.c.c.c.c.c.c.c.c.c.c.c.c.c.c.c.c.c.c.c.c.c.c.c.c.c.c.c.c.c.c.c.c.c.c.c.c.c.c.c.c.c.c.c.c.c.c.c.c.c.c.c.c.c.c.c.c.",
"c.c.c.c.c.c.c.c.c.c.c.c.c.c.c.c.c.c.c.c.c.c.c.c.c.c.c.c.c.c.c.c.c.c.c.c.c.c.c.c.c.c.c.c.c.c.c.c.c.c.c.c.c.c.c.c.c.c.c.c.c.c.c.c.",
"c.c.c.c.c.c.c.c.c.c.c.c.c.c.c.c.c.c.c.c.c.c.c.c.c.c.c.c.c.c.c.c.c.c.c.c.c.c.c.c.c.c.c.c.c.c.c.c.c.c.c.c.c.c.c.c.c.c.c.c.c.c.c.c.",
"c.c.c.c.c.c.c.c.c.c.c.c.c.c.c.c.c.c.c.c.c.c.c.c.c.c.c.c.c.c.c.c.c.c.c.c.c.c.c.c.c.c.c.c.c.c.c.c.c.c.c.c.c.c.c.c.c.c.c.c.c.c.c.c.",
"c.c.c.c.c.c.c.c.c.c.c.c.c.c.c.c.c.c.c.c.c.c.c.c.c.c.c.c.c.c.c.c.c.c.c.c.c.c.c.c.c.c.c.c.c.c.c.c.c.c.c.c.c.c.c.c.c.c.c.c.c.c.c.c.",
"c.c.c.c.c.c.c.c.c.c.c.c.c.c.c.c.c.c.c.c.c.c.c.c.c.c.c.c.c.c.c.c.c.c.c.c.c.c.c.c.c.c.c.c.c.c.c.c.c.c.c.c.c.c.c.c.c.c.c.c.c.c.c.c.",
"c.c.c.c.c.c.c.c.c.c.c.c.c.c.c.c.c.c.c.c.c.c.c.c.c.c.c.c.c.c.c.c.c.c.c.c.c.c.c.c.c.c.c.c.c.c.c.c.c.c.c.c.c.c.c.c.c.c.c.c.c.c.c.c.",
"c.c.c.c.c.c.c.c.c.c.c.c.c.c.c.c.c.c.c.c.c.c.c.c.c.c.c.c.c.c.c.c.c.c.c.c.c.c.c.c.c.c.c.c.c.c.c.c.c.c.c.c.c.c.c.c.c.c.c.c.c.c.c.c.",
"c.c.c.c.c.c.c.c.c.c.c.c.c.c.c.c.c.c.c.c.c.c.c.c.c.c.c.c.c.c.c.c.c.c.c.c.c.c.c.c.c.c.c.c.c.c.c.c.c.c.c.c.c.c.c.c.c.c.c.c.c.c.c.c.",
"c.c.c.c.c.c.c.c.c.c.c.c.c.c.c.c.c.c.c.c.c.c.c.c.c.c.c.c.c.c.c.c.c.c.c.c.c.c.c.c.c.c.c.c.c.c.c.c.c.c.c.c.c.c.c.c.c.c.c.c.c.c.c.c.",
"c.c.c.c.c.c.c.c.c.c.c.c.c.c.c.c.c.c.c.c.c.c.c.c.c.c.c.c.c.c.c.c.c.c.c.c.c.c.c.c.c.c.c.c.c.c.c.c.c.c.c.c.c.c.c.c.c.c.c.c.c.c.c.c.",
"c.c.c.c.c.c.c.c.c.c.c.c.c.c.c.c.c.c.c.c.c.c.c.c.c.c.c.c.c.c.c.c.c.c.c.c.c.c.c.c.c.c.c.c.c.c.c.c.c.c.c.c.c.c.c.c.c.c.c.c.c.c.c.c.",
"c.c.c.c.c.c.c.c.c.c.c.c.c.c.c.c.c.c.c.c.c.c.c.c.c.c.c.c.c.c.c.c.c.c.c.c.c.c.c.c.c.c.c.c.c.c.c.c.c.c.c.c.c.c.c.c.c.c.c.c.c.c.c.c."
};
