/* XPM */
static char *result[] = {
/* columns rows colors chars-per-pixel */
"64 64 180 2 ",
"   c #040000",
".  c #160000",
"X  c #1B0100",
"o  c #1C0805",
"O  c #220400",
"+  c #2B0300",
"@  c #230A00",
"#  c #280A00",
"$  c #200A08",
"%  c #350200",
"&  c #350A00",
"*  c #3D0C00",
"=  c #291309",
"-  c #341E18",
";  c #430000",
":  c #4A0100",
">  c #450D00",
",  c #4F0D00",
"<  c #550200",
"1  c #5C0300",
"2  c #5B0900",
"3  c #431500",
"4  c #4B1300",
"5  c #4B1A00",
"6  c #431B00",
"7  c #541400",
"8  c #5A1700",
"9  c #561B00",
"0  c #5F1800",
"q  c #6C0700",
"w  c #640801",
"e  c #6B0A00",
"r  c #610400",
"t  c #700600",
"y  c #720900",
"u  c #7C0A00",
"i  c #621700",
"p  c #641B00",
"a  c #6B1B00",
"s  c #741E00",
"d  c #7B1900",
"f  c #731008",
"g  c #4F2D00",
"h  c #552301",
"j  c #5D2300",
"k  c #572900",
"l  c #4E3301",
"z  c #5F3700",
"x  c #692C00",
"c  c #692900",
"v  c #7B2400",
"b  c #663400",
"n  c #6B3500",
"m  c #6A3C00",
"M  c #7A3600",
"N  c #4C352B",
"B  c #6A4400",
"V  c #6A4900",
"C  c #840C00",
"Z  c #8D0E00",
"A  c #930E00",
"S  c #8E1300",
"D  c #831800",
"F  c #961100",
"G  c #9C1200",
"H  c #911F00",
"J  c #A31500",
"K  c #A91700",
"L  c #A41A00",
"P  c #AC1B00",
"I  c #B01E00",
"U  c #812200",
"Y  c #882700",
"T  c #832F00",
"R  c #8C2B00",
"E  c #952100",
"W  c #932B00",
"Q  c #9C2D00",
"!  c #9C2400",
"~  c #883600",
"^  c #833D00",
"/  c #9F3100",
"(  c #9D3D00",
")  c #953800",
"_  c #A52400",
"`  c #AB2300",
"'  c #A52C00",
"]  c #AC2C00",
"[  c #B32300",
"{  c #B82600",
"}  c #B42A00",
"|  c #BC2A00",
" . c #A33400",
".. c #AE3100",
"X. c #A73A00",
"o. c #B53400",
"O. c #BC3500",
"+. c #B83900",
"@. c #C02E00",
"#. c #C33400",
"$. c #C83600",
"%. c #C53A00",
"&. c #CB3B00",
"*. c #D33E00",
"=. c #8F4600",
"-. c #8F4A00",
";. c #964100",
":. c #9F4600",
">. c #804111",
",. c #A54700",
"<. c #B24400",
"1. c #BD4400",
"2. c #B64900",
"3. c #BF4A00",
"4. c #AE5100",
"5. c #AF5C00",
"6. c #BC5400",
"7. c #B55E00",
"8. c #BE5B00",
"9. c #BF6000",
"0. c #B06D00",
"q. c #A17500",
"w. c #BD7700",
"e. c #C34200",
"r. c #CC4300",
"t. c #CB4B00",
"y. c #C14C00",
"u. c #D54200",
"i. c #DB4300",
"p. c #D34800",
"a. c #DD4A00",
"s. c #C75D00",
"d. c #D55300",
"f. c #DB5400",
"g. c #D95800",
"h. c #E04700",
"j. c #E34B00",
"k. c #E94E00",
"l. c #E65100",
"z. c #EA5200",
"x. c #E05A00",
"c. c #EC5C00",
"v. c #F15500",
"b. c #F35C00",
"n. c #C26100",
"m. c #C26E00",
"M. c #D56400",
"N. c #CF7C01",
"B. c #D87000",
"V. c #EC6400",
"C. c #ED6A00",
"Z. c #F46400",
"A. c #F96600",
"S. c #F46B00",
"D. c #FA6C00",
"F. c #E17900",
"G. c #E97F00",
"H. c #F77400",
"J. c #FA7400",
"K. c #F27F00",
"L. c #FB7B00",
"P. c #DA8000",
"I. c #C69300",
"U. c #E68300",
"Y. c #ED8700",
"T. c #F28303",
"R. c #FD8300",
"E. c #F78800",
"W. c #FD8D00",
"Q. c #FD9400",
"!. c #FE9C00",
"~. c #F09E04",
"^. c #ECAE00",
"/. c #FFA400",
"(. c #FFAA00",
"). c #F1B100",
"_. c #FFC000",
"`. c #F1D200",
"'. c #EAC12F",
"]. c None",
/* pixels */
"].].].].].].].].].].].].].].].].].].].].].].].].].].].].].].].].].].].].].].].].].].].].].].].].].].].].].].].].].].].].].].].].",
"].].].].].].].].].].].].].].].].].].].].].].].].].].].].].].].].].].].].].].].].].].].].].].].].].].].].].].].].].].].].].].].].",
"].].].].].].].].].].].].].].].].].].].].].].].].].].].].].].].].].].].].].].].].].].].].].].].].].].].].].].].].].].].].].].].].",
"].].].].].].].].].].].].].].].].].].].].].].].].].].].].].].].].].].].].].].].].].].].].].].].].].].].].].].].].].].].].].].].].",
"].].].].].].].].].].].].].].].].].].].].].].].].].].].].].].].].].].].].].].].].].].].].].].].].].].].].].].].].].].].].].].].].",
"].].].].].].].].].].].].].].].].].].].].].].].].].].].].].].].].].].].].].].].].].].].].].].].].].].].].].].].].].].].].].].].].",
"].].].].].].].].].].].].].].].].].].].].].].].].].].].].].].].].].].].].].].].].].].].].].].].].].].].].].].].].].].].].].].].].",
"].].].].].].].].].].].].].].].].].].].].].].].].].].].].].].].].].].].].].].].].].].].].].].].].].].].].].].].].].].].].].].].].",
"].].].].].].].].].].].].].].].].].].].].].].].].].].].].].].].].].].].].].].].].].].].].].].].].].].].].].].].].].].].].].].].].",
"].].].].].].].].].].].].].].].].].].].].].].].].].].].].].].].].].].].].].].].].].].].].].].].].].].].].].].].].].].].].].].].].",
"].].].].].].].].].].].].].].].].].].].].].].].].].].].].].].].].].].].].].].].].].].].].].].].].].].].].].].].].].].].].].].].].",
"].].].].].].].].].].].].].].].].].].].].].].].].].].].].].].].].].].].].].].].].].].].].].].].].].].].].].].].].].].].].].].].].",
"].].].].].].].].].].].].].].].].].].].].].].].].].].].].].].].].].].].].].].].].].].].].].].].].].].].].].].].].].].].].].].].].",
"].].].].].].].].].].].].].].].].].].].].].].].].].].].].].].].].].].].].].].].].].].].].].].].].].].].].].].].].].].].].].].].].",
"].].].].].].].].].].].].].].].].].].].].].].].].].].].].].].].].].].].].].].].].].].].].].].].].].].].].].].].].].].].].].].].].",
"].].].].].].].].].].].].].].].].].].].].].].].].].].].].].].].].].].].].].].].].].].].].].].].].].].].].].].].].].].].].].].].].",
"].].].].].].].].].].].].].].].].].].].].].].].].].].].].].].].].].].].].].].].].].].].].].].].].].].].].].].].].].].].].].].].].",
"].].].].].].].].`.).'.~.].].].N.).T.0.].].].].].].].].].].].].].].].].].].].].].].].].].].].].].].].].].].].].].].].].].].].].].",
"].].].].].].].q./.(.Q.Q.. ].].(.Q._.;.. ].].].].].].].].].].].].].].].].].].].].].].].].].].].].].].].].].].].].].].].].].].].].",
"].].].].].].].!.(./.R.(.. . ^.Q.(.W.w.. ].].].].].].].].].].].].].].].].].].].].].].].].].].].].].].].].].].].].].].].].].].].].",
"].].].].].].(.Q.!.Q.(.(.. ) !.!.(./.5.. ].].].].].].].].].].].].].].].].].].].].].].].].].].].].].].].].].].].].].].].].].].].].",
"].].].].].].].>.J.Q.L.R.O E.Q.H.L.) 7.. . V V m m m m m c n o # B m + B h m B n m 4 ].].].l b b B x m ].].j m B k m ].].].].].].",
"].].].].].].].Q.W.L.H.L.F.L.L.E.<.L.6.. X J.H.D.D.D.L.L.L.W.. l y.W.Q.L.z.J.R.L.W.8.].].n R.L.R.D.E.H.].].I.R.L.H.R.].].].].].].",
"].].].].].].m.b.Z.z.b.b.A.Z.A.A.K.Z.<.. . H.H.Z.Z.V.b.4.s.W.. g !.H.b.A.b.S.S.6.A.W ].].E.e.L.E.A.H.A.].. n.e.-.b.A.].].].].].].",
"].].].].].,.j.k.h.j.b.v.b.z.z.c.k.j.Y ].].. k.k.M . . . . . . . . . . L.l.V.. . . ].].X ~ h.z.C.A.k.Z.].].. M.v.z.].].].].].].].",
"].].].].].i.a.j.h.c.j.j.k.k.Z.i.a.h.' ].].. C.j.k.k.4 . . . . X . . . Z.l.z.. . . ].. X c.k.a.% j.j.1.].].. B.j. .].].].].].].].",
"].].].].L.i.i.i.a.s.i.h.a.*.( *.a.i. .].].. h.h.i.i.4 ].= = = ].= = = a.k.j.].].].].].M.k.*.h.*.i.i.i.].]..  .h.a.].].].].].].].",
"].].].v %.i.*.a.O m.*.i.i.4 a *.i.i.Y ].].. u.i.%.W & X ].].].].].].].p.i.*.].].].].9 a.a.a.i.*.*.i.i.].].. N.i.i.].].].].].].].",
"].].].,.u.&.%.%.. p r.O.' . c &.&.*.W . ].. i.a.8 . X b ].].].].].].].&.&.i.].].].X Z.u.i.p 4 i f.%.%.].].. s &.%.].].].].].].].",
"].].t.%.%.%.%.i . 6.&.%.X h y.&.&.O.0 a . X.i.i.r.i ~ O.&.i.. ].].].,.O.$.i.Q ].].2.i.u.Q . . 6 *.%.*.Q X ^ g.*.U ( W ( t.&.&.7 ",
"].7 &.O.%.O.O.. . n.%.0 . T %.%.&.o.&.W . %.%.O.&.%.&.O.%.&.. ].].].*.#.O.%.%.].+ i.%.*.@ ].. x #.&.1.&.X v %.z.r.#.%.&.O.%.&.* ",
"].%.o.o.%.o.O . . W o.. . v O.o.o.o.o.v . %.O.O.O.O.o.o.O.O.. ].].].o.o.c o.%.].e.%.O.7 ].].. 8  .e.O.%.O / o.o.O.%.] %.o.o.O.4 ",
"].].. . . . . . . . o . X @ O O @ @ @ O . @ O # . . . . . . . ].].].# O . . . . O # O ].].].. X O X O # O . O . . . . . . . ].].",
"].].].].].. . . . ].h T.Z.z.l.l.z.z.z.l.. L.c.z.O . . . . . . ].U.v.k.a.].].].X b.c.a.].].& G.H.l.z.r.a 9.C.j.. . . . ].].].].].",
"].].].].].].].].].7 l.%.l.a.k.a.z.&.i.j.. X.i.p.O ].].].].].].].3.u.#.O.].].].X i.a.d ].6 V.i.l.a.a.Q k.l.p.j.].].].].].].].].].",
"].].].].].].].].].g.D r.u.r.O.' E #.O.O.X g.a.k.X ].].].].].].].d.a.a.a.].].].. k.H g.  Y.p.| a.E ` d O.r.! r.].].].].].].].].].",
"].].].].].].].].].8.i.$.&.X . . . . . . . c.&.z.O ].].].].].].].o.#.k.p.].].].. z.#.&.. T.h.{ o.. . . . . . ].].].].].].].].].].",
"].].].].].].].].].E &.P @.} e X . . . . . z.*.*.X ].].].].].].]. .@.$.i.].].].X u.i.a.. %.&.| D . . . X ].].].].].].].].].].].].",
"].].].].].].].].].].[ K { I J $.[ q ].].].f.@.{ O ].].].].].].].O.| C | ].].].X | &.%.. *.{ [ _ * &.{ | G | | ].].].].].].].].].",
"].].].].].].].].].].].+ ` P G [ { [ &.N ].d.| $.O ].].].].].].].` r [ [ ].].].. $.{ $.. [ *.[ S > G I | y I [ ].].].].].].].].].",
"].].].].].].].].].].].].].].- . ` @._ 2 $ O.{ ` X ].].].].].].]._ [ [ [ ].].].X P { ` . L _ | G . X X o.K G [ ].].].].].].].].].",
"].].].].].].].].].> 4 % % + > 9 F L L L . L e [ , 3 5 5 4 % O + u G I S f X + ] [ G J . ' [ P F & O * | J K { ].].].].].].].].].",
"].].].].].].].].].@.Z G P F G P J P G w . 2 K J L P J K Z G F t : K J J J L P L G K y . < G P J K G G P J C ` ].].].].].].].].].",
"].].].].].].].].].] u J 1 Z Z A Z J C . . { J K K K K G J J F r . q u C G K K K K q . . . u J F A A Z J J u G ].].].].].].].].].",
"].].].].].].].].].y < < C q C % : . . . . y r y < q : y 1 X F : . . . % Z 1 C r X ].. . . . . ; Z : C : e < 1 ].].].].].].].].].",
"].].].].].].].].].].].. . . . . . . . X ].].. . . . . . . . . . ].. . . . . . . ].].].. . . . . . . . X . ].].].].].].].].].].].",
"].].].].].].].].].].].].].].].].].].].].].].].].].].].].].].].].].].].].].].].].].].].].].].].].].].].].].].].].].].].].].].].].",
"].].].].].].].].].].].].].].].].].].].].].].].].].].].].].].].].].].].].].].].].].].].].].].].].].].].].].].].].].].].].].].].].",
"].].].].].].].].].].].].].].].].].].].].].].].].].].].].].].].].].].].].].].].].].].].].].].].].].].].].].].].].].].].].].].].].",
"].].].].].].].].].].].].].].].].].].].].].].].].].].].].].].].].].].].].].].].].].].].].].].].].].].].].].].].].].].].].].].].].",
"].].].].].].].].].].].].].].].].].].].].].].].].].].].].].].].].].].].].].].].].].].].].].].].].].].].].].].].].].].].].].].].].",
"].].].].].].].].].].].].].].].].].].].].].].].].].].].].].].].].].].].].].].].].].].].].].].].].].].].].].].].].].].].].].].].].",
"].].].].].].].].].].].].].].].].].].].].].].].].].].].].].].].].].].].].].].].].].].].].].].].].].].].].].].].].].].].].].].].].",
"].].].].].].].].].].].].].].].].].].].].].].].].].].].].].].].].].].].].].].].].].].].].].].].].].].].].].].].].].].].].].].].].",
"].].].].].].].].].].].].].].].].].].].].].].].].].].].].].].].].].].].].].].].].].].].].].].].].].].].].].].].].].].].].].].].].",
"].].].].].].].].].].].].].].].].].].].].].].].].].].].].].].].].].].].].].].].].].].].].].].].].].].].].].].].].].].].].].].].].",
"].].].].].].].].].].].].].].].].].].].].].].].].].].].].].].].].].].].].].].].].].].].].].].].].].].].].].].].].].].].].].].].].",
"].].].].].].].].].].].].].].].].].].].].].].].].].].].].].].].].].].].].].].].].].].].].].].].].].].].].].].].].].].].].].].].].",
"].].].].].].].].].].].].].].].].].].].].].].].].].].].].].].].].].].].].].].].].].].].].].].].].].].].].].].].].].].].].].].].].",
"].].].].].].].].].].].].].].].].].].].].].].].].].].].].].].].].].].].].].].].].].].].].].].].].].].].].].].].].].].].].].].].].",
"].].].].].].].].].].].].].].].].].].].].].].].].].].].].].].].].].].].].].].].].].].].].].].].].].].].].].].].].].].].].].].].].",
"].].].].].].].].].].].].].].].].].].].].].].].].].].].].].].].].].].].].].].].].].].].].].].].].].].].].].].].].].].].].].].].].",
"].].].].].].].].].].].].].].].].].].].].].].].].].].].].].].].].].].].].].].].].].].].].].].].].].].].].].].].].].].].].].].].].",
"].].].].].].].].].].].].].].].].].].].].].].].].].].].].].].].].].].].].].].].].].].].].].].].].].].].].].].].].].].].].].].].]."
};
