/* XPM */
static char *result[] = {
/* columns rows colors chars-per-pixel */
"64 64 185 2 ",
"   c #020201",
".  c #0A0705",
"X  c #0C0905",
"o  c #0C0B0B",
"O  c #110E05",
"+  c #111201",
"@  c #1B140E",
"#  c #1C1508",
"$  c #141414",
"%  c #191A14",
"&  c #0E170F",
"*  c #251D15",
"=  c #2D1F10",
"-  c #261A0E",
";  c #19261A",
":  c #282A02",
">  c #352904",
",  c #303103",
"<  c #2C2219",
"1  c #362B1E",
"2  c #342312",
"3  c #1F3221",
"4  c #222222",
"5  c #2A2A2A",
"6  c #3A2D22",
"7  c #213523",
"8  c #28392A",
"9  c #3C3225",
"0  c #393939",
"q  c #2F3630",
"w  c #423005",
"e  c #402E1A",
"r  c #433525",
"t  c #4B3B2A",
"y  c #473728",
"u  c #463C32",
"i  c #29432C",
"p  c #374739",
"a  c #325136",
"s  c #3A5F3F",
"d  c #37573B",
"f  c #2F4C32",
"g  c #3B603F",
"h  c #474707",
"j  c #644808",
"k  c #7B5A0A",
"l  c #76701C",
"z  c #52402A",
"x  c #494338",
"c  c #564431",
"v  c #594732",
"b  c #5F4935",
"n  c #49422F",
"m  c #654E39",
"M  c #624B36",
"N  c #67513A",
"B  c #3E5540",
"V  c #3D6442",
"C  c #4D4D4D",
"Z  c #414642",
"A  c gray34",
"S  c #5A5047",
"D  c #745B41",
"F  c #795E44",
"G  c #436A47",
"H  c #47734C",
"J  c #49774F",
"K  c #4E7E54",
"L  c #5D625E",
"P  c #7D6346",
"I  c #646464",
"U  c #6A6C6A",
"Y  c #757474",
"T  c #797979",
"R  c #7A736C",
"E  c #946C0D",
"W  c #8C6B1E",
"Q  c #8D720A",
"!  c #AF7F0D",
"~  c #A87C14",
"^  c #96772B",
"/  c #826749",
"(  c #86694B",
")  c #8A6B4D",
"_  c #8F6F50",
"`  c #917251",
"'  c #977854",
"]  c #9B7B56",
"[  c #9D7E5E",
"{  c #887054",
"}  c #A27E5A",
"|  c #4F8155",
" . c #568B5C",
".. c #56875B",
"X. c #59905F",
"o. c #5C9563",
"O. c #5E8762",
"+. c #629A69",
"@. c #66A56E",
"#. c #68A76F",
"$. c #6BAC72",
"%. c #74BB7C",
"&. c #71B779",
"*. c #74A57A",
"=. c #77C07F",
"-. c #898D07",
";. c #8E9208",
":. c #BC890E",
">. c #CC9410",
",. c #C18C0F",
"<. c #CAB00D",
"1. c #E6A712",
"2. c #FAB613",
"3. c #FDB913",
"4. c #F9B618",
"5. c #F7BE0E",
"6. c #BBC00A",
"7. c #C2C80A",
"8. c #D6D014",
"9. c #FCCA12",
"0. c #FAD312",
"q. c #F8E40F",
"w. c #F8F30E",
"e. c #F6FD0D",
"r. c #F9E110",
"t. c #F6FD11",
"y. c #F5FC1B",
"u. c #CCD03B",
"i. c #FDC43B",
"p. c #F4FB22",
"a. c #A3815B",
"s. c #A8845E",
"d. c #AE885C",
"f. c #8C8D6A",
"g. c #AD8961",
"h. c #AC8760",
"j. c #B28E64",
"k. c #BC9569",
"l. c #B89167",
"z. c #C49B6D",
"x. c #C89E70",
"c. c #CCA273",
"v. c #D2A675",
"b. c #D3A876",
"n. c #D7AC78",
"m. c #D9AD79",
"M. c #DEB17C",
"N. c #E3B57F",
"B. c #F8FE4D",
"V. c #F8FE47",
"C. c #F9FE57",
"Z. c #DFE270",
"A. c #F9FE6A",
"S. c #FAFE79",
"D. c #79C381",
"F. c #868686",
"G. c #8B8A88",
"H. c #9F9F9F",
"J. c #959595",
"K. c #94928E",
"L. c #A6A6A6",
"P. c #AAAAAA",
"I. c #B3B3B3",
"U. c #ECBC84",
"Y. c #E7B984",
"T. c #F1BF86",
"R. c #86D98F",
"E. c #83D38B",
"W. c #89DB91",
"Q. c #93EC9C",
"!. c #90E799",
"~. c #8BE094",
"^. c #9DFDA6",
"/. c #98F5A2",
"(. c #F4C289",
"). c #F9C58A",
"_. c #FECA8E",
"`. c #FBFE91",
"'. c #C8C8C8",
"]. c gray82",
"[. c #FCFEC4",
"{. c gray90",
"}. c #F2F2F2",
"|. c #FEFEFE",
" X c None",
/* pixels */
" X X X X X X X X X X X X X X X X X X X X X X X X X X X X X X X X X X X X X X X X X X X X X X X X X X X X X X X X X X X X X X X X",
" X X X X X X X X X X X X X X X X X X X X X X X X X X X X X X       X X X X X X X X X X X X X X X X X X X X X X X X X X X X X X X",
" X X X X X X X X X X X X X X X X X X X X X X X X X X X X X X. 5 o  X X X X X X X X X X X X X X X X X X X X X X X X X X X X X X X",
" X X X X X X X X X X X X X X X X X X X X X X X X X X X X X X$ C $  X X X X X X X X X X X X X X X X X X X X X X X X X X X X X X X",
" X X X X X X X X X X X X X X X X X X X X X X X X X X X X X X$ C $  X X X X X X X X X X X X X X X X X X X X X X X X X X X X X X X",
" X X X X X X X X X X X X X X X X X X X X X X X X X X X X X X$ C $  X X X X X X X X X X X X X X X X X X X X X X X X X X X X X X X",
" X X X X X X X X X X X X X X X X X X X X X X X X X X X X X X$ C $ L.t t y < u  X X X X X X X X X X X X X X X X X X X X X X X X X",
" X X X X X X X X X X X X X X X X X X X X X X XT T Y t t ( Y . 4 . ( U.v.P r x  X X X X X X X X X X X X X X X X X X X X X X X X X",
" X X X X X X X X X X X X X X X X X X X X X'.F.- 2 1 ] ) Y.  . = . (.x.g.< 5 C  X X X X X X X X X X X X X X X X X X X X X X X X X",
" X X X X X X X X X X X X X X X X X X X X Xo 6 g.U.T.k._ _   1 c.1 b._ _ <  X X X X X X X X X X X X X X X X X X X X X X X X X X X",
" X X X X X X X X X X X X X X X X X X X X X4 4 4 4 4 9 D D   * ( k.F D 9 P. X X X X X X X X X X X X X X X X X X X X X X X X X X X",
" X X X X X X X X X X X X X X X X X X X X X X X X X XP.      @ M b   * @ P. X X X X X X X X X X X X X X X X X X X X X X X X X X X",
" X X X X X X X X X X X X X X X X X X X X X X X X X XP.              / y P. X X X X X X X X X X X X X X X X X X X X X X X X X X X",
" X X X X X X X X X X X X X X X X X X X X X X X X X XP.c [ M     F } z.' Z  X X X X X X X X X X X X X X X X X X X X X X X X X X X",
" X X X X X X X X X X X X X X X X X X X X X X X X X XP.F n.) b   N n._.x.<  X X X X X X X X X X X X X X X X X X X X X X X X X X X",
" X X X X X X X X X X X X X X X X X X X X X X X X X Xr n.n.) m     v._._.g.X 5  X X X X X X X X X X X X X X X X X X X X X X X X X",
" X X X X X X X X X X X X X X X X X X X X X X X X X Xr j._ c r     l.T.(.g.X 5  X X X X X X X X X X X X X X X X X X X X X X X X X",
" X X X X X X X X X X X X X X X X X X X X X X X X X X@ l ;.G.f.-.: 6 g.x.b.` {  X X X X X X X X X X X X X X X X X X X X X X X X X",
" X X X X X X X X X X X X X X X X X X X X X X X XA x 6.Z.[.V.A.[.u.  ) g.M._.b.I  X X X X X X X X X X X X X X X X X X X X X X X X",
" X X X X X X X X X X X X X X X X X X X X X X X X5 + e.`.|.e.B.|.B.  ) d.m.).b.I  X X X X X X X X X X X X X X X X X X X X X X X X",
" X X X X X X X X X X X X X X X X X X X X X X XI 8.e.w.w.e.e.e.w.w.  ] l.m.m.j.I  X X X X X X X X X X X X X X X X X X X X X X X X",
" X X X X X X X X X X X X X X X X X X X X X X XT 8.r.1.<.q.e.w.0.3.. _.(.m.k.] I  X X X X X X X X X X X X X X X X X X X X X X X X",
" X X X X X X X X X X X X X X X X X X X X X XH.J.i.3.! E 3.e.e.e.9.  _._.Y.) D I  X X X X X X X X X X X X X X X X X X X X X X X X",
" X X X X X X X X X X X X X X X X X X X X X XL.^ 3.3.! # > 9.9.9.q.. _.(.m._ D I  X X X X X X X X X X X X X X X X X X X X X X X X",
" X X X X X X X X X X X X X X X X X X X X X XH.E 3.1.y d.(   .   :.. n.n.a.o 5  X X X X X X X X X X X X X X X X X X X X X X X X X",
" X X X X X X X X X X X X X X X X X X X X X X XI   o N.U.n.) N._.r b.n.n.} . 5  X X X X X X X X X X X X X X X X X X X X X X X X X",
" X X X X X X X X X X X X X X X X X X X X X X XI   O N.N.n.c x.(.9 b.n.M.s.. 5  X X X X X X X X X X X X X X X X X X X X X X X X X",
" X X X X X X X X X X X X X X X X X X X X X X XI k E N v v ;.9 v z b.n.U.g.. 5  X X X X X X X X X X X X X X X X X X X X X X X X X",
" X X X X X X X X X X X X X X X X X X X X X XI.W 4.2.<.6.7.e.7.7.h v.).v.y   5  X X X X X X X X X X X X X X X X X X X X X X X X X",
" X X X X X X X X X X X X X X X X X X X X X XH.E 2.2.9.t.t.t.e.e.h v._.x.*   5  X X X X X X X X X X X X X X X X X X X X X X X X X",
" X X X X X X X X X X X X X X X X X X X X X XI.W >.,.> , , > <.>.>.@ ) c m . 5  X X X X X X X X X X X X X X X X X X X X X X X X X",
" X X X X X X X X X X X X X X X X X X X X X X XH.o + r.e.e.0.j j # ( s.s.` . 5  X X X X X X X X X X X X X X X X X X X X X X X X X",
" X X X X X X X X X X X X X X X X X X X X X X X X5 + y.p.e.e.5.3.w ( m.n.} O 5  X X X X X X X X X X X X X X X X X X X X X X X X X",
" X X X X X X X X X X X X X X X X X X X X X X X X5 + B.A.e.e.q.3.w z.).U.t  X X X X X X X X X X X X X X X X X X X X X X X X X X X",
" X X X X X X X X X X X X X X X X X X X X X X X X5 + C.S.e.3.:.  m ) ).x.<  X X X X X X X X X X X X X X X X X X X X X X X X X X X",
" X X X X X X X X X X X X X X X X X X X X X X X X5 + w.e.e.3.~ @ s.n.) s.r  X X X X X X X X X X X X X X X X X X X X X X X X X X X",
" X X X X X X X X X X X X X X X X X X X X X X X X5 X 0.e.e.4.z d.x.m.) _ <  X X X X X X X X X X X X X X X X X X X X X X X X X X X",
" X X X X X X X X X X X X X X X X X X X X X X X XL.K.-.e.e.j P U.T.m.) m o  X X X X X X X X X X X X X X X X X X X X X X X X X X X",
" X X X X X X X X X X X X X X X X X X X X X X X X X{.h -.,   @ < < * @ G J q C  X X X X X X X X X X X X X X X X X X X X X X X X X",
" X X X X X X X X X X X X X X X X X X X X X X X X X{.  x $.$.D.^.^.^.^.R.J . 5  X X X X X X X X X X X X X X X X X X X X X X X X X",
" X X X X X X X X X X X X X X X X X X X X X X X X'.I.; s o.$.=.Q.Q.Q.R.%.H & q  X X X X X X X X X X X X X X X X X X X X X X X X X",
" X X X X X X X X X X X X X X X X X X X X X X XI.B a &.H g $.D.$.$.X.@.o.K V a I  X X X X X X X X X X X X X X X X X X X X X X X X",
" X X X X X X X X X X X X X X X X X X X X X X XU %.~.D.o.X.| /.~.+.=.^.R.$.V a I  X X X X X X X X X X X X X X X X X X X X X X X X",
" X X X X X X X X X X X X X X X X X X X X X X XU E.^.$.$.$.V ^.^...^.^.R.$.V a I  X X X X X X X X X X X X X X X X X X X X X X X X",
" X X X X X X X X X X X X X X X X X X X X X XH.X./.Q.$.#.$.#.H #.H /.^.R.$.V a I  X X X X X X X X X X X X X X X X X X X X X X X X",
" X X X X X X X X X X X X X X X X X X X X X XH.< 6 6 o.o.| 0   $ G !.%.@.| J s I  X X X X X X X X X X X X X X X X X X X X X X X X",
" X X X X X X X X X X X X X X X X X X X X X XH.' M.x.7 a   }.$ C $ @.      @.X.I  X X X X X X X X X X X X X X X X X X X X X X X X",
" X X X X X X X X X X X X X X X X X X X X X XH.' M.c.n &   }.$ C $ 8 ) _ N 8 3 I  X X X X X X X X X X X X X X X X X X X X X X X X",
" X X X X X X X X X X X X X X X X X X X X X XH.' M.b.b Y ].}.$ C $ j.).).g.. 4  X X X X X X X X X X X X X X X X X X X X X X X X X",
" X X X X X X X X X X X X X X X X X X X X X XH.P n.b.b F.}.}.$ C $   _.U.} . 5  X X X X X X X X X X X X X X X X X X X X X X X X X",
" X X X X X X X X X X X X X X X X X X X X X XH.F b.b.b F.}.}.$ C $   (.N.} . 5  X X X X X X X X X X X X X X X X X X X X X X X X X",
" X X X X X X X X X X X X X X X X X X X X X X XS } g.b F.}.}.$ C $ Y F a.l.y x I. X X X X X X X X X X X X X X X X X X X X X X X X",
" X X X X X X X X X X X X X X X X X X X X X X XI D ) b 5 A }.$ C $  XL.R ( { N I  X X X X X X X X X X X X X X X X X X X X X X X X",
" X X X X X X X X X X X X X X X X X X X X X X XI D ( b     }.$ C $  X XF.b ( F I  X X X X X X X X X X X X X X X X X X X X X X X X",
" X X X X X X X X X X X X X X X X X X X X X X XI     ; V s   $ C $  X XF.  . & 8 H. X X X X X X X X X X X X X X X X X X X X X X X",
" X X X X X X X X X X X X X X X X X X X X X X XI V J ..a i Z o 0 o  X XF.i H | V H. X X X X X X X X X X X X X X X X X X X X X X X",
" X X X X X X X X X X X X X X X X X X X X X X XI o.#.V ;    X       X XF.i #.$.V H. X X X X X X X X X X X X X X X X X X X X X X X",
" X X X X X X X X X X X X X X X X X X X X X X XO.#.#.f U L. XL.P.P. X XF.i @.$.| B C  X X X X X X X X X X X X X X X X X X X X X X",
" X X X X X X X X X X X X X X X X X X X X X4 p #.H V i F. X X X X X X XF.i #.$. .;    X X X X X X X X X X X X X X X X X X X X X X",
" X X X X X X X X X X X X X X X X X X X X X  8 K V d C  X X X X X X X XG.i #.%.W.8 .  X X X X X X X X X X X X X X X X X X X X X X",
" X X X X X X X X X X X X X X X X X X X X X  % p q q K. X X X X X X X X XB K +.*.L I  X X X X X X X X X X X X X X X X X X X X X X",
" X X X X X X X X X X X X X X X X X X X X XT T T T F. X X X X X X X X X XC ; 8 5 H. X X X X X X X X X X X X X X X X X X X X X X X",
" X X X X X X X X X X X X X X X X X X X X X X X X X X X X X X X X X X X X XP.P.P. X X X X X X X X X X X X X X X X X X X X X X X X",
" X X X X X X X X X X X X X X X X X X X X X X X X X X X X X X X X X X X X X X X X X X X X X X X X X X X X X X X X X X X X X X X X"
};
