/* XPM */
static char *result[] = {
/* columns rows colors chars-per-pixel */
"64 64 235 2 ",
"   c #070701",
".  c #080701",
"X  c #0B0A02",
"o  c #110C02",
"O  c #1A0B01",
"+  c #160701",
"@  c #141103",
"#  c #1A1402",
"$  c #1E1903",
"%  c #161508",
"&  c #1B190A",
"*  c #1A1708",
"=  c #250D01",
"-  c #231201",
";  c #2B1301",
":  c #231C04",
">  c #251D09",
",  c #341501",
"<  c #391802",
"1  c #29170B",
"2  c #2B2303",
"3  c #2B250C",
"4  c #28240C",
"5  c #362B04",
"6  c #382C04",
"7  c #342708",
"8  c #3E3209",
"9  c #3C3007",
"0  c #242212",
"q  c #292612",
"w  c #2B2817",
"e  c #322D14",
"r  c #342719",
"t  c #383318",
"y  c #3D3921",
"u  c #4C0501",
"i  c #461A00",
"p  c #491B01",
"a  c #481300",
"s  c #541600",
"d  c #581900",
"f  c #590300",
"g  c #690600",
"h  c #720B00",
"j  c #760400",
"k  c #671702",
"l  c #751603",
"z  c #4D2205",
"x  c #462506",
"c  c #532403",
"v  c #5D2303",
"b  c #5C2A05",
"n  c #562A0A",
"m  c #43360C",
"M  c #463A0F",
"N  c #493D12",
"B  c #433C1C",
"V  c #453811",
"C  c #5B3515",
"Z  c #5C3106",
"A  c #662502",
"S  c #7A2600",
"D  c #683509",
"F  c #723B0B",
"G  c #763906",
"H  c #6A3C16",
"J  c #6F3314",
"K  c #423E25",
"L  c #4D4114",
"P  c #4C441E",
"I  c #47401C",
"U  c #55491A",
"Y  c #5A4D1D",
"T  c #564418",
"R  c #7A420D",
"E  c #69431B",
"W  c #794718",
"Q  c #6C511D",
"!  c #4B4625",
"~  c #584C24",
"^  c #5C5224",
"/  c #595229",
"(  c #555032",
")  c #6B4B23",
"_  c #714B25",
"`  c #625623",
"'  c #645A2C",
"]  c #695E2B",
"[  c #665826",
"{  c #795627",
"}  c #6F4D34",
"|  c #635B35",
" . c #655E36",
".. c #765536",
"X. c #744931",
"o. c #6E622D",
"O. c #71652F",
"+. c #726731",
"@. c #746832",
"#. c #7A6E36",
"$. c #756B3A",
"%. c #7D7139",
"&. c #6C6437",
"*. c #797143",
"=. c #696859",
"-. c #7E5F47",
";. c #830400",
":. c #8C0000",
">. c #810800",
",. c #980B00",
"<. c #960E00",
"1. c #861800",
"2. c #9F1D00",
"3. c #A21900",
"4. c #842A00",
"5. c #942D00",
"6. c #9A3302",
"7. c #803104",
"8. c #A82600",
"9. c #B12800",
"0. c #A83500",
"q. c #BB3500",
"w. c #C43C00",
"e. c #CA3E00",
"r. c #864A09",
"t. c #9A5706",
"y. c #884D14",
"u. c #895619",
"i. c #945514",
"p. c #9C5D1A",
"a. c #985917",
"s. c #904F05",
"d. c #A45D07",
"f. c #886112",
"g. c #9C7114",
"h. c #A2611C",
"j. c #B46E0B",
"k. c #895624",
"l. c #935C27",
"z. c #834E20",
"x. c #99642C",
"c. c #836737",
"v. c #966D34",
"b. c #82763D",
"n. c #84783E",
"m. c #967138",
"M. c #8B612F",
"N. c #A86925",
"B. c #B6762E",
"V. c #A87434",
"C. c #BC7C32",
"Z. c #B57D38",
"A. c #AB7229",
"S. c #D27F0A",
"D. c #C07F35",
"F. c #887B42",
"G. c #917A45",
"H. c #8A765A",
"J. c #886D56",
"K. c #947B65",
"L. c #875643",
"P. c #AE8A1C",
"I. c #BA823C",
"U. c #D68C10",
"Y. c #F29E11",
"T. c #E9940F",
"R. c #F1AD19",
"E. c #C5863B",
"W. c #D9B627",
"Q. c #C4A123",
"!. c #E1B222",
"~. c #E7C62A",
"^. c #FBC725",
"/. c #FBD82E",
"(. c #8D8248",
"). c #94894C",
"_. c #8B8350",
"`. c #9B8E52",
"'. c #968955",
"]. c #9D9356",
"[. c #B58540",
"{. c #A09556",
"}. c #A59B5B",
"|. c #A99D5D",
" X c #AB894B",
".X c #ABA05F",
"XX c #9C8C73",
"oX c #A49265",
"OX c #AEA362",
"+X c #B1A564",
"@X c #B6AB6A",
"#X c #B9AE6B",
"$X c #B4A966",
"%X c #BCB16D",
"&X c #BEB371",
"*X c #BBAF72",
"=X c #CC8D43",
"-X c #C28642",
";X c #CA9448",
":X c #D59649",
">X c #DA9B4D",
",X c #D19346",
"<X c #DD9E51",
"1X c #D69D51",
"2X c #D7A456",
"3X c #CDA352",
"4X c #E1A152",
"5X c #E4AD5B",
"6X c #E7B05E",
"7X c #DBB665",
"8X c #C5B076",
"9X c #E9B769",
"0X c #EEC46E",
"qX c #EAC973",
"wX c #F1CB74",
"eX c #F4D57C",
"rX c #AD9784",
"tX c #B9AA90",
"yX c #C7BAA6",
"uX c #C5BC80",
"iX c #D1C997",
"pX c #F8DD82",
"aX c #EDD782",
"sX c #FDE78A",
"dX c #FEEA93",
"fX c #D8D2AE",
"gX c #E8D1A8",
"hX c #FCEEAC",
"jX c #E3DECB",
"kX c #EDEBDA",
"lX c #F4F2DE",
"zX c #EEECD4",
"xX c #F6F6E6",
"cX c #DAD3C1",
"vX c None",
/* pixels */
"vXvXvXvXvXvXvXvXvXvXvXvXvXvXvXvXvXvXvXvXvXvXvXvXvXvXvXvXvXvXvXvXvXvXvXvXvXvXvXvXvXvXvXvXvXvXvXvXvXvXvXvXvXvXvXvXvXvXvXvXvXvXvXvX",
"vXvXvXvXvXvXvXvXvXvXvXvXvXvXvXvXvXvXvXvXvXvXvXvXvXvXvXvXvXvXvXvXvXvXvXvXvXp p p vXvXvXvXvXvXvXvXvXvXvXvXvXvXvXvXvXvXvXvXvXvXvXvX",
"vXvXvXvXvXvXvXvXvXvXvXvXvXvXvXvXvXvXvXvXvXvXvXvXvXvXvXvXvXvXvXvXvXvXvXvXvXD D E D vXvXvXvXvXvXvXvXvXvXvXvXvXvXvXvXvXvXvXvXvXvXvX",
"vXvXvXvXvXvXvXvXvXvXvXvXvXvXvXvXvXvXvXvXvXvXvXvXvXvXvXvXvXi i a i i p i Z W././.g.c i vXvXvXvXvXvXvXvXvXvXvXvXvXvXvXvXvXvXvXvXvX",
"vXvXvXvXvXvXvXvXvXvXvXvXvXvXvXvXvXvXvXvXvXvXvXvXvXi p i G S.U.U.!.W.W.W.W.R.R./.g.n i vXvXvXvXvXvXvXvXvXvXvXvXvXvXvXvXvXvXvXvXvX",
"vXvXvXvXvXvXvXvXvXvXvXvXvXvXvXvXvXvXvXvXvXvXvXvXvXb b A r.Y.Y.Y.~.~.~.~.~.T.T.^.g.c i vXvXvXvXvXvXvXvXvXvXvXvXvXvXvXvXvXvXvXvXvX",
"vXvXvXvXvXvXvXvXvXvXvXvXvXvXvXvXvXvXvXvXvXvXvXvXi t.j.j.U.R.^.^.g.f.f.f.f.r.r.U.t.c p vXvXvXvXvXvXvXvXvXvXvXvXvXvXvXvXvXvXvXvXvX",
"vXvXvXvXvXvXvXvXvXvXvXvXvXvXvXvXvXvXvXvXvXvXvXvXi j.Y.Y.!.P.P.P.K.'.K.K.H.C z s.d.s.r.vXvXvXvXvXvXvXvXvXvXvXvXvXvXvXvXvXvXvXvXvX",
"vXvXvXvXvXvXvXvXvXvXvXvXvXvXvXvXvXvXvXvXvXvXvXvXc j.Y.R.Q.n n C yXxXxXxXjX-.C p i.U.d.a vXvXvXvXvXvXvXvXvXvXvXvXvXvXvXvXvXvXvXvX",
"vXvXvXvXvXvXvXvXvXvXvXvXvXvXvXvXvXvXvXvXvXvXvXvXs.U.Y.U.P.{ -.K.fXxXxXxXkXrXK.C G d.s.vXvXvXvXvXvXvXvXvXvXvXvXvXvXvXvXvXvXvXvXvX",
"vXvXvXvXvXvXvXvXvXvXvXvXvXvXvXvXvXvXvXvXvXvXp c U.T.U.t.) *XiXkXlXlXxXxXkXxXkX..i p p vXvXvXvXvXvXvXvXvXvXvXvXvXvXvXvXvXvXvXvXvX",
"vXvXvXvXvXvXvXvXvXvXvXvXvXvXvXvXvXvXvXvXvXvXp c U.s.D c.OX*X*X8X..H l.{ w k.l.A i vXvXvXvXvXvXvXvXvXvXvXvXvXvXvXvXvXvXvXvXvXvXvX",
"vXvXvXvXvXvXvXvXvXvXvXvXvXvXvXvXvXvXvXvXvXvXp p d.u.{ c.G.G.G.G.k.l.N.k., k.A.v._ vXvXvXvXvXvXvXvXvXvXvXvXvXvXvXvXvXvXvXvXvXvXvX",
"vXvXvXvXvXvXvXvXvXvXvXvX.           vXvXvXvXp p A v.`.c.C H C C V.=X=XV.z V.,X7Xm.n vXvXvXvXvXvXvXvXvXvXvXvXvXvXvXvXvXvXvXvXvXvX",
"vXvXvXvXvXvXvXvXvXvXvXw =.=.| | | 3 # X . o = ; i _ c.l.z.p D k.2X0X0X2Xx.:X<X9X8XK.J.vXvXvXvXvXvXvXvXvXvXvXvXvXvXvXvXvXvXvXvXvX",
"vXvXvXvXvXvXvXvXvXvX  w rXiX|.OX|.L 2 # o o . X a a n l.Z.D z.:X0XpXsXaX4X:X=X-X8XyXXXa vXvXvXvXvXvXvXvXvXvXvXvXvXvXvXvXvXvXvXvX",
"vXvXvXvXvXvXvXvXvXvX. 0 H.@Xn.(.n.M 5 2 2 2 X X g d n l.-Xy.N.:X6X9XpXaX>XC.N.z.X...} vXvXvXvXvXvXvXvXvXvXvXvXvXvXvXvXvXvXvXvXvX",
"vXvXvXvXvXvXvXvXvXvX. 0 *.].@.+.@.8 6 5 5 2 # = >.h d l.Z.i.N.,X4X9XwXwX>XN.h.n i i x vXvXvXvXvXvXvXvXvXvXvXvXvXvXvXvXvXvXvXvXvX",
"vXvXvXvXvXvXvXvXvXvX  0 *.].+.+.@.m 6 5 : , 0.w.w.,.j u - z D i.,X4X4X4X4X4X1XH vXvXvXvXvXvXvXvXvXvXvXvXvXvXvXvXvXvXvXvXvXvXvXvX",
"vXvXvXvXvXvXvXvXvXvXvXvXt K L L L $ # # i 5.w.e.e.w.9.<.u = x y.E.,XC.Z.7XgXgXX.vXvXvXvXvXvXvXvXvXvXvXvXvXvXvXvXvXvXvXvXvXvXvXvX",
"vXvXvXvXvXvXvXvXvXvXvXvXX 4 8 8 m @ X o v w.w.w.w.w.q.3.g o 7 y.E.E.B.A.@XfXjX} vXvXvXvXvXvXvXvXvXvXvXvXvXvXvXvXvXvXvXvXvXvXvXvX",
"vXvXvXvXvXvXvXvXvXvXvXvX  3 Y ^ Y % < A 6.q.4.S 4.S 4.5.1.X ; b N.C.D.V.( =.=.r vXvXvXvXvXvXvXvXvXvXvXvXvXvXvXvXvXvXvXvXvXvXvXvX",
"vXvXvXvXvXvXvXvXvXvXvXvX3 P o./ ! c l 8.0.6.y.z.z.H G 7.4.p i , D u.B.V.~ | | 7 vXvXvXvXvXvXvXvXvXvXvXvXvXvXvXvXvXvXvXvXvXvXvXvX",
"vXvXvXvXvXvXvXvXvXvX  % ! +.o.I o 6.9.<.h H -X<X<XA.i.F A q.4.O , A y.N.1XqXqX_ vXvXvXvXvXvXvXvXvXvXvXvXvXvXvXvXvXvXvXvXvXvXvXvX",
"vXvXvXvXvXvXvXvXvXvXX & / %.o.B . 0.8.1.S k.2X9X9X;XV.W k 9.S + , v F l.,X6X7XQ vXvXvXvXvXvXvXvXvXvXvXvXvXvXvXvXvXvXvXvXvXvXvXvX",
"vXvXvXvXvXvXvXvXvXvX  0 *.].' t X 0.5.k u.6XpXdXxXhXaX).s ;.g + , p a n a.i.i.v vXvXvXvXvXvXvXvXvXvXvXvXvXvXvXvXvXvXvXvXvXvXvXvX",
"vXvXvXvXvXvXvXvXvX  H.].(.~ - v 0.w.5.v k.6XsXsXdXdXpX;XF + = < G.G.H i p c c vXvXvXvXvXvXvXvXvXvXvXvXvXvXvXvXvXvXvXvXvXvXvXvXvX",
"vXvXvXvXvXvXvXvXvX  '.OX(.! O A e.e.5.v W 2XeXsXsXsXqX;XR O = i oX'.E a d p p vXvXvXvXvXvXvXvXvXvXvXvXvXvXvXvXvXvXvXvXvXvXvXvXvX",
"vXvXvXvXvXvXvXvXvX  '.OX(.P O A e.e.6.v F I.eXsXsXqX5XE.R < < i tXtX} d h s i vXvXvXvXvXvXvXvXvXvXvXvXvXvXvXvXvXvXvXvXvXvXvXvXvX",
"vXvXvXvXvXvXvXvXvX  ' #.[ e + A w.9.l d D h.;X2X0X:XE.h.r.z C ..fXtX..k 3.k p vXvXvXvXvXvXvXvXvXvXvXvXvXvXvXvXvXvXvXvXvXvXvXvXvX",
"vXvXvXvXvXvXvXvXvX  e 8 6 , , S e.,.h s D p.h.h.:XB.h.h.R z _ OXfXrXX.l q.A c vXvXvXvXvXvXvXvXvXvXvXvXvXvXvXvXvXvXvXvXvXvXvXvXvX",
"vXvXvXvXvXvXvXvXvX  I U e 6 4.6.e.,.h s D h.C.E.<X=XI.N.r.z _ OXXXL.J l S G F b vXvXvXvXvXvXvXvXvXvXvXvXvXvXvXvXvXvXvXvXvXvXvXvX",
"vXvXvXvXvXvXvXvXvX  ^ ' e s e.e.e.,.h s D h.,X<X4X<X:XB.r.c ) |.H s h h v y.a.b i vXvX  vXvXvXvXvXvXvXvXvXvXvXvXvXvXvXvXvXvXvXvX",
"vXvXvXvXvXvXvXvXvX  ^ ' e d e.e.e.,.:.:.h b i.h.:XB.p.a.i.i.R c p a p A p.=X:XH - .       . vXvXvXvXvXvXvXvXvXvXvXvXvXvXvXvXvXvX",
"vXvXvXvXvXvXvXvXvXvXe t & ; A 6.e.,.:.:.h c y.p.:X1X3X3X;XI.N.R c i i b a.z._ 7 - : 3 ! | ( 0 vXvXvXvXvXvXvXvXvXvXvXvXvXvXvXvXvX",
"vXvXvXvXvXvXvXvXvXvX% @ . X , A w.,.:.:.h v y.p.:X0XeXeXqX:XI.a.b p p b y.7 > + $ 5 V +.}.*.w vXvXvXvXvXvXvXvXvXvXvXvXvXvXvXvXvX",
"vXvXvXvXvXvXvXvXvXvXvXvXvX  o , d >.:.:.;.k D R 7XwX0X0X0X0X5XE.{ E T E D < ; + @ : 7 Y @.&.&.y vXvXvXvXvXvXvXvXvXvXvXvXvXvXvXvX",
"vXvXvXvXvXvXvXvXvXvXvXvXvXvX    . f g g j ;.g k  X2X4X4X6XwX7XI.c.o.[ ) W _ W ~ r # - 2 6 P F.~ 0 & vXvXvXvXvXvXvXvXvXvXvXvXvXvX",
"vXvXvXvXvXvXvXvXvXvXvXvXvXvXX X X + + O u :.;.j J Z.>X4X2X2XI.E [ [ T ) =X=X;X7Xc.x ; @ 6 8 M Y ! 3 X vXvXvXvXvXvXvXvXvXvXvXvXvX",
"vXvXvXvXvXvXvXvXvXvXvXvXvXvX& & & 0 > o , j j g a x.E.E.;XI.v.m Y ` Y { 4X5X6XqXm.z ; o 5 5 6 U ~ e & vXvXvXvXvXvXvXvXvXvXvXvXvX",
"vXvXvXvXvXvXvXvXvXvXvXvX  e +.+.+.OXF.N :     . . , p F y.6 6 6 6 Q I.2X5XeXpXC.F p ; o 5 6 6 5 N ^ ^   vXvXvXvXvXvXvXvXvXvXvXvX",
"vXvXvXvXvXvXvXvXvXvXvXvX  e @.+.@.~ @.).].'.'.'.' V x x x @ $ 5 v.E.<X4X4X5X5XA.D c W m.@ : 5 5 6 m L ^ q X vXvXvXvXvXvXvXvXvXvX",
"vXvXvXvXvXvXvXvXvXvXvXvX  e +.+.+.U @.{.+X#X@X$Xb.Y V m , % $ 2 m.;X<X4X<X>X,XN.J n z.V.o # 2 5 6 6 m ] e & vXvXvXvXvXvXvXvXvXvX",
"vXvXvXvXvXvXvXvXvXvXvXvX  e +.+.@.F.(.(.].%X%X#X|.).F.! 2 ! t : H A.E.4X>XC.A.R F r.W H , ; # 2 6 6 8 L P P 4 vXvXvXvXvXvXvXvXvX",
"vXvXvXvXvXvXvXvXvXvXvXvXvX4 P ^ @.).(.#.F.}.@X%X%X%X+X%.t t e $ m Q l.x.x.W F c A F D i p , o # 2 2 5 6 L Y / ! vXvXvXvXvXvXvXvX",
"vXvXvXvXvXvXvXvXvXvXvXvXvXvX% t o.@.O.@.@.n.+X%X%X%X@X`./ X $ 5 Y ) C x x c n z x i i vXvXvXvX  @ 2 5 6 8 8 *. .vXvXvXvXvXvXvXvX",
"vXvXvXvXvXvXvXvXvXvXvXvXvXvXX 3 U o.@.@.@.n.+X%X%X%X@X.X$.X $ 5 T Y C C E { { Y x x x vXvXvXvXvX@ $ 2 5 V U / ! vXvXvXvXvXvXvXvX",
"vXvXvXvXvXvXvXvXvXvXvXvXvXvX  $ 5 o.O.O.@.n..X@X%X&X&X%X_.X @ 2 5 N [ +.%..X@X(.Y 6 5 vXvXvXvXvXvX. X 5 ^ o.e   vXvXvXvXvXvXvXvX",
"vXvXvXvXvXvXvXvXvXvXvXvXvXvXvXX X 5 8 8 U @.#.%.$XfXzXfX_.    X 2 6 6 L %..X%X$X+.8 6 vXvXvXvXvXvXvXvXX @ @ .   vXvXvXvXvXvXvXvX",
"vXvXvXvXvXvXvXvXvXvXvXvXvXvXvXvXX 8 P L o.).).).$XiXfXiX_.  X $ 5 8 L Y %..X#X%X&.3 2 vXvXvXvXvXvXvXvX        vXvXvXvXvXvXvXvXvX",
"vXvXvXvXvXvXvXvXvXvXvXvXvXvXvXvXX ~ o.o.n..X+X.X&X&X&X&X_.X @ 2 5 M ^ o.#..X%X%X| * X vXvXvXvXvXvXvXvXvXvXvXvXvXvXvXvXvXvXvXvXvX",
"vXvXvXvXvXvXvXvXvXvXvXvXvXvX@ q t o.%.).).`.`.`.#X&X%X$X$.X @ 5 L ^ o.%.`.$X%X].! X   vXvXvXvXvXvXvXvXvXvXvXvXvXvXvXvXvXvXvXvXvX",
"vXvXvXvXvXvXvXvXvXvXvXvXvXvXX e ~ o.(.].).#.F.F..X`._.$.t X X 2 U o.o.b.|.'._. .e @ vXvXvXvXvXvXvXvXvXvXvXvXvXvXvXvXvXvXvXvXvXvX",
"vXvXvXvXvXvXvXvXvXvXvXvXvXvX. % > ' #.%.%.%.].|.(.! t q &   X @ 6 U [ #.#.! t 0 & vXvXvXvXvXvXvXvXvXvXvXvXvXvXvXvXvXvXvXvXvXvXvX",
"vXvXvXvXvXvXvXvXvXvXvXvXvXvXX X   / ' o.o.$.].}.+.e X X X       2 V ^ o./ 0 X   vXvXvXvXvXvXvXvXvXvXvXvXvXvXvXvXvXvXvXvXvXvXvXvX",
"vXvXvXvXvXvXvXvXvXvXvXvX. # 5 5 5 % X X X   X @ X vXvXvXvXX         X X X vXvXvXvXvXvXvXvXvXvXvXvXvXvXvXvXvXvXvXvXvXvXvXvXvXvXvX",
"vXvXvXvXvXvXvXvXvXvX. X : 2 6 6 6 2 2 2 @   vXvXvXvXvXvXvX. @ 2 2 2 2 #   vXvXvXvXvXvXvXvXvXvXvXvXvXvXvXvXvXvXvXvXvXvXvXvXvXvXvX",
"vXvXvXvXvXvXvXvXvXvX. X : 5 6 6 6 6 5 5 :   vXvXvXvXvXvXvX. @ 2 5 2 5 2 X vXvXvXvXvXvXvXvXvXvXvXvXvXvXvXvXvXvXvXvXvXvXvXvXvXvXvX",
"vXvXvXvXvXvXvXvXvXvX. . @ 2 6 6 6 U t 2 @ vXvXvXvXvXvXvXvXX X @ 2 5 5 8 t & X vXvXvXvXvXvXvXvXvXvXvXvXvXvXvXvXvXvXvXvXvXvXvXvXvX",
"vXvXvXvXvXvXvXvXvXvX# # @ 3 U L L F.o.B q vXvXvXvXvXvXvXX $ $ $ 5 8 L Y +./ ( w vXvXvXvXvXvXvXvXvXvXvXvXvXvXvXvXvXvXvXvXvXvXvXvX",
"vXvXvXvXvXvXvXvXvX. 2 5 5 L o.o.o..X).#.I . vXvXvXvXvXvX@ 5 5 5 5 L ^ O.%.]..Xt vXvXvXvXvXvXvXvXvXvXvXvXvXvXvXvXvXvXvXvXvXvXvXvX",
"vXvXvXvXvXvXvXvXvX. 2 5 6 N ` ` ` `.).#.U @ vXvXvXvXvX  @ 5 6 6 5 M Y [ %.`.].! 3 vXvXvXvXvXvXvXvXvXvXvXvXvXvXvXvXvXvXvXvXvXvXvX",
"vXvXvXvXvXvXvXvXvX. 2 5 5 5 5 6 5 ] +.O.Y 2 X   vXvXvX  @ 5 6 6 5 6 5 L +.+.+.+.U 6 :   vXvXvXvXvXvXvXvXvXvXvXvXvXvXvXvXvXvXvXvX",
"vXvXvXvXvXvXvXvXvX  X @ X @ X X X % % % % X .   vXvXvX  X @ X X X X X @ % % % % @ X X   vXvXvXvXvXvXvXvXvXvXvXvXvXvXvXvXvXvXvXvX"
};
