/* XPM */
static char *result[] = {
/* columns rows colors chars-per-pixel */
"64 64 235 2 ",
"   c #070701",
".  c #080701",
"X  c #0B0A02",
"o  c #110C02",
"O  c #1A0B01",
"+  c #160701",
"@  c #141103",
"#  c #1A1402",
"$  c #1E1903",
"%  c #161508",
"&  c #1B190A",
"*  c #1A1708",
"=  c #250D01",
"-  c #231201",
";  c #2B1301",
":  c #231C04",
">  c #251D09",
",  c #341501",
"<  c #391802",
"1  c #29170B",
"2  c #2B2303",
"3  c #2B250C",
"4  c #28240C",
"5  c #362B04",
"6  c #382C04",
"7  c #342708",
"8  c #3E3209",
"9  c #3C3007",
"0  c #242212",
"q  c #292612",
"w  c #2B2817",
"e  c #322D14",
"r  c #342719",
"t  c #383318",
"y  c #3D3921",
"u  c #4C0501",
"i  c #461A00",
"p  c #491B01",
"a  c #481300",
"s  c #541600",
"d  c #581900",
"f  c #590300",
"g  c #690600",
"h  c #720B00",
"j  c #760400",
"k  c #671702",
"l  c #751603",
"z  c #4D2205",
"x  c #462506",
"c  c #532403",
"v  c #5D2303",
"b  c #5C2A05",
"n  c #562A0A",
"m  c #43360C",
"M  c #463A0F",
"N  c #493D12",
"B  c #433C1C",
"V  c #453811",
"C  c #5B3515",
"Z  c #5C3106",
"A  c #662502",
"S  c #7A2600",
"D  c #683509",
"F  c #723B0B",
"G  c #763906",
"H  c #6A3C16",
"J  c #6F3314",
"K  c #423E25",
"L  c #4D4114",
"P  c #4C441E",
"I  c #47401C",
"U  c #55491A",
"Y  c #5A4D1D",
"T  c #564418",
"R  c #7A420D",
"E  c #69431B",
"W  c #794718",
"Q  c #6C511D",
"!  c #4B4625",
"~  c #584C24",
"^  c #5C5224",
"/  c #595229",
"(  c #555032",
")  c #6B4B23",
"_  c #714B25",
"`  c #625623",
"'  c #645A2C",
"]  c #695E2B",
"[  c #665826",
"{  c #795627",
"}  c #6F4D34",
"|  c #635B35",
" . c #655E36",
".. c #765536",
"X. c #744931",
"o. c #6E622D",
"O. c #71652F",
"+. c #726731",
"@. c #746832",
"#. c #7A6E36",
"$. c #756B3A",
"%. c #7D7139",
"&. c #6C6437",
"*. c #797143",
"=. c #696859",
"-. c #7E5F47",
";. c #830400",
":. c #8C0000",
">. c #810800",
",. c #980B00",
"<. c #960E00",
"1. c #861800",
"2. c #9F1D00",
"3. c #A21900",
"4. c #842A00",
"5. c #942D00",
"6. c #9A3302",
"7. c #803104",
"8. c #A82600",
"9. c #B12800",
"0. c #A83500",
"q. c #BB3500",
"w. c #C43C00",
"e. c #CA3E00",
"r. c #864A09",
"t. c #9A5706",
"y. c #884D14",
"u. c #895619",
"i. c #945514",
"p. c #9C5D1A",
"a. c #985917",
"s. c #904F05",
"d. c #A45D07",
"f. c #886112",
"g. c #9C7114",
"h. c #A2611C",
"j. c #B46E0B",
"k. c #895624",
"l. c #935C27",
"z. c #834E20",
"x. c #99642C",
"c. c #836737",
"v. c #966D34",
"b. c #82763D",
"n. c #84783E",
"m. c #967138",
"M. c #8B612F",
"N. c #A86925",
"B. c #B6762E",
"V. c #A87434",
"C. c #BC7C32",
"Z. c #B57D38",
"A. c #AB7229",
"S. c #D27F0A",
"D. c #C07F35",
"F. c #887B42",
"G. c #917A45",
"H. c #8A765A",
"J. c #886D56",
"K. c #947B65",
"L. c #875643",
"P. c #AE8A1C",
"I. c #BA823C",
"U. c #D68C10",
"Y. c #F29E11",
"T. c #E9940F",
"R. c #F1AD19",
"E. c #C5863B",
"W. c #D9B627",
"Q. c #C4A123",
"!. c #E1B222",
"~. c #E7C62A",
"^. c #FBC725",
"/. c #FBD82E",
"(. c #8D8248",
"). c #94894C",
"_. c #8B8350",
"`. c #9B8E52",
"'. c #968955",
"]. c #9D9356",
"[. c #B58540",
"{. c #A09556",
"}. c #A59B5B",
"|. c #A99D5D",
" X c #AB894B",
".X c #ABA05F",
"XX c #9C8C73",
"oX c #A49265",
"OX c #AEA362",
"+X c #B1A564",
"@X c #B6AB6A",
"#X c #B9AE6B",
"$X c #B4A966",
"%X c #BCB16D",
"&X c #BEB371",
"*X c #BBAF72",
"=X c #CC8D43",
"-X c #C28642",
";X c #CA9448",
":X c #D59649",
">X c #DA9B4D",
",X c #D19346",
"<X c #DD9E51",
"1X c #D69D51",
"2X c #D7A456",
"3X c #CDA352",
"4X c #E1A152",
"5X c #E4AD5B",
"6X c #E7B05E",
"7X c #DBB665",
"8X c #C5B076",
"9X c #E9B769",
"0X c #EEC46E",
"qX c #EAC973",
"wX c #F1CB74",
"eX c #F4D57C",
"rX c #AD9784",
"tX c #B9AA90",
"yX c #C7BAA6",
"uX c #C5BC80",
"iX c #D1C997",
"pX c #F8DD82",
"aX c #EDD782",
"sX c #FDE78A",
"dX c #FEEA93",
"fX c #D8D2AE",
"gX c #E8D1A8",
"hX c #FCEEAC",
"jX c #E3DECB",
"kX c #EDEBDA",
"lX c #F4F2DE",
"zX c #EEECD4",
"xX c #F6F6E6",
"cX c #DAD3C1",
"vX c None",
/* pixels */
"vXvXvXvXvXvXvXvXvXvXvXvXvXvXvXvXvXvXvXvXvXvXvXvXvXvXvXvXvXvXvXvXvXvXvXvXvXvXvXvXvXvXvXvXvXvXvXvXvXvXvXvXvXvXvXvXvXvXvXvXvXvXvXvX",
"vXvXvXvXvXvXvXvXvXvXvXvXvXvXvXvXvXvXvXvXvXvXvXvXp z p vXvXvXvXvXvXvXvXvXvXvXvXvXvXvXvXvXvXvXvXvXvXvXvXvXvXvXvXvXvXvXvXvXvXvXvXvX",
"vXvXvXvXvXvXvXvXvXvXvXvXvXvXvXvXvXvXvXvXvXvXvXD T D D vXvXvXvXvXvXvXvXvXvXvXvXvXvXvXvXvXvXvXvXvXvXvXvXvXvXvXvXvXvXvXvXvXvXvXvXvX",
"vXvXvXvXvXvXvXvXvXvXvXvXvXvXvXvXvXvXvXvXvXi c g././.W.Z i i i i i i i vXvXvXvXvXvXvXvXvXvXvXvXvXvXvXvXvXvXvXvXvXvXvXvXvXvXvXvXvX",
"vXvXvXvXvXvXvXvXvXvXvXvXvXvXvXvXvXvXvXvXvXi n g./.R.R.W.W.W.W.!.S.U.S.G i i i vXvXvXvXvXvXvXvXvXvXvXvXvXvXvXvXvXvXvXvXvXvXvXvXvX",
"vXvXvXvXvXvXvXvXvXvXvXvXvXvXvXvXvXvXvXvXvXx c g.^.T.T.~.~.~.~.^.Y.Y.T.r.b v b vXvXvXvXvXvXvXvXvXvXvXvXvXvXvXvXvXvXvXvXvXvXvXvXvX",
"vXvXvXvXvXvXvXvXvXvXvXvXvXvXvXvXvXvXvXvXvXp c d.U.s.r.f.f.f.f.g.^.^.^.U.j.j.t.i vXvXvXvXvXvXvXvXvXvXvXvXvXvXvXvXvXvXvXvXvXvXvXvX",
"vXvXvXvXvXvXvXvXvXvXvXvXvXvXvXvXvXvXvXvXvXr.s.t.s.c C J.XXK.K.G.P.P.P.R.Y.Y.j.i vXvXvXvXvXvXvXvXvXvXvXvXvXvXvXvXvXvXvXvXvXvXvXvX",
"vXvXvXvXvXvXvXvXvXvXvXvXvXvXvXvXvXvXvXvXp h.S.t.p C -.jXxXxXxXyXn n n Q.R.Y.S.c vXvXvXvXvXvXvXvXvXvXvXvXvXvXvXvXvXvXvXvXvXvXvXvX",
"vXvXvXvXvXvXvXvXvXvXvXvXvXvXvXvXvXvXvXvXvXs.d.R C K.rXkXxXxXxXcXH.L...P.U.T.S.r.vXvXvXvXvXvXvXvXvXvXvXvXvXvXvXvXvXvXvXvXvXvXvXvX",
"vXvXvXvXvXvXvXvXvXvXvXvXvXvXvXvXvXvXvXvXvXp p i ..kXlXkXxXxXxXlXkXiX&X) t.U.T.U.c p vXvXvXvXvXvXvXvXvXvXvXvXvXvXvXvXvXvXvXvXvXvX",
"vXvXvXvXvXvXvXvXvXvXvXvXvXvXvXvXvXvXvXvXvXvXvXi n l.z.r { k.H } &X&X#X$XM.D s.U.c p vXvXvXvXvXvXvXvXvXvXvXvXvXvXvXvXvXvXvXvXvXvX",
"vXvXvXvXvXvXvXvXvXvXvXvXvXvXvXvXvXvXvXvXvXvXvXz.v.A.l.1 u.N.k.k.(.G.G.G.c.{ u.d.z p vXvXvXvXvXvXvXvXvXvXvXvXvXvXvXvXvXvXvXvXvXvX",
"vXvXvXvXvXvXvXvXvXvXvXvXvXvXvXvXvXvXvXvXvXvXn m.7X,XZ.p V.,X=XV.C C C H c.'.m.D p p vXvXvXvX          X vXvXvXvXvXvXvXvXvXvXvXvX",
"vXvXvXvXvXvXvXvXvXvXvXvXvXvXvXvXvXvXvXvXvXJ.K.8X9X4X,Xx.2XwX0X2Xk.D p _ l.c.) a ; ; +   X # 4 |  . .=.=.w vXvXvXvXvXvXvXvXvXvXvX",
"vXvXvXvXvXvXvXvXvXvXvXvXvXvXvXvXvXvXvXvXp XXyX8X-X=X:X<XeXsXpX0X:Xk.D Z.l.n a a . . X @ # 2 L |.}.].fXrXw . vXvXvXvXvXvXvXvXvXvX",
"vXvXvXvXvXvXvXvXvXvXvXvXvXvXvXvXvXvXvXvXvX} ..X.W A.C.>XeXeX0X6X:XN.y.=Xl.n s g o o : 2 2 5 M n.F.(.$XH.0   vXvXvXvXvXvXvXvXvXvX",
"vXvXvXvXvXvXvXvXvXvXvXvXvXvXvXvXvXvXvXvXvXi i i A p.A.>XwXeX9X4X,XN.i.Z.l.v g ;.= - 2 5 5 5 M @.&.@.].*.0   vXvXvXvXvXvXvXvXvXvX",
"vXvXvXvXvXvXvXvXvXvXvXvXvXvXvXvXvXvXvXvXvXvXvXvXH >X<X4X4X4X4XE.i.D p - u ;.,.e.w.0.; : 5 6 M @.+.+.].*.0   vXvXvXvXvXvXvXvXvXvX",
"vXvXvXvXvXvXvXvXvXvXvXvXvXvXvXvXvXvXvXvXvXvXvXvXX.gXgX8XI.D.,X=Xy.x O f 1.9.w.e.e.q.6.i # # $ L L I K t vXvXvXvXvXvXvXvXvXvXvXvX",
"vXvXvXvXvXvXvXvXvXvXvXvXvXvXvXvXvXvXvXvXvXvXvXvX} jXfX*XA.A.=X-Xy.7 + g 3.w.w.w.e.e.w.v o o @ 8 8 8 : @ vXvXvXvXvXvXvXvXvXvXvXvX",
"vXvXvXvXvXvXvXvXvXvXvXvXvXvXvXvXvXvXvXvXvXvXvXvXr =.=.( V.D.B.h.A : . 1.5.4.S S S 4.q.6.k , # Y Y Y 4   vXvXvXvXvXvXvXvXvXvXvXvX",
"vXvXvXvXvXvXvXvXvXvXvXvXvXvXvXvXvXvXvXvXvXvXvXvXr | | C V.B.u.D , a d 7.7.D H z.z.y.6.0.8.S z ! ' o.P q vXvXvXvXvXvXvXvXvXvXvXvX",
"vXvXvXvXvXvXvXvXvXvXvXvXvXvXvXvXvXvXvXvXvXvXvXvX) qXqX1XN.y.D < O 4.q.A J i.B.<X1X-XH h ,.8.6.@ B o.O.P &   vXvXvXvXvXvXvXvXvXvX",
"vXvXvXvXvXvXvXvXvXvXvXvXvXvXvXvXvXvXvXvXvXvXvXvXE 7X7X,Xa.F b , o S 9.k W V.;X9X6X2Xk.l 1.8.0.X t ' %.~ &   vXvXvXvXvXvXvXvXvXvX",
"vXvXvXvXvXvXvXvXvXvXvXvXvXvXvXvXvXvXvXvXvXvXvXvXb i.a.a.b p p , + g ;.d  XaXhXlXdXpX6Xz.v 6.0.o I o.].*.0 X vXvXvXvXvXvXvXvXvXvX",
"vXvXvXvXvXvXvXvXvXvXvXvXvXvXvXvXvXvXvXvXvXvXvXvXvXd c c p H G.G., = O F ;XaXdXdXsXsX6Xk.v 5.w.0.b > ~ (.].F.  vXvXvXvXvXvXvXvXvX",
"vXvXvXvXvXvXvXvXvXvXvXvXvXvXvXvXvXvXvXvXvXvXvXvXvXp p s s E K.oXa - O F ;XwXsXsXsXpX2XW k 5.e.w.A O ! _.OX'.  vXvXvXvXvXvXvXvXvX",
"vXvXvXvXvXvXvXvXvXvXvXvXvXvXvXvXvXvXvXvXvXvXvXvXvXp d h s } rXtXi < < R I.5XwXsXsXeXI.R v 5.e.w.d O P (.$X'.  vXvXvXvXvXvXvXvXvX",
"vXvXvXvXvXvXvXvXvXvXvXvXvXvXvXvXvXvXvXvXvXvXvXvXvXp k 2.k ..yXfX{ C z R A.I.,X0X2X;Xh.D d 1.9.e.A O t [ $.'   vXvXvXvXvXvXvXvXvX",
"vXvXvXvXvXvXvXvXvXvXvXvXvXvXvXvXvXvXvXvXvXvXvXvXvXc A 0.A X.rXyX+X_ z r.p.h.B.>Xh.h.a.D p h ,.e.S < : 6 8 5   vXvXvXvXvXvXvXvXvX",
"vXvXvXvXvXvXvXvXvXvXvXvXvXvXvXvXvXvXvXvXvXvXvXvXb F G 4.l J L.oX+X_ z r.A.E.E.>XE.C.h.D p h <.e.6.S i 5 P L   vXvXvXvXvXvXvXvXvX",
"vXvXvXvXvXvXvXvXvXvXvXvXvXvXvXvXvXvXvXvX. vXvXa A i.y.c j j s E |._ c r.C.:X>X4X<X,Xp.D s h ,.e.e.e.d e ' /   vXvXvXvXvXvXvXvXvX",
"vXvXvXvXvXvXvXvXvXvXvXvXvXvXvXvXvXvX.   . . . - H :X=Xa.A p p z n R y.a.a.p.B.:Xp.i.A h ;.:.,.e.e.e.p e ' /   vXvXvXvXvXvXvXvXvX",
"vXvXvXvXvXvXvXvXvXvXvXvXvXvXvXvXvX0 (  .! 4 : - 7 _ { i.Z i i c R N.C.;X3X3X2X,Xp.s.c h :.:.,.e.5.A ; & e t vXvXvXvXvXvXvXvXvXvX",
"vXvXvXvXvXvXvXvXvXvXvXvXvXvXvXvXvXw *.}.+.N 5 : o 1 m y.b i p A a.C.:XqXeXeX0X:Xp.y.n h :.:.,.w.S , o X @ % vXvXvXvXvXvXvXvXvXvX",
"vXvXvXvXvXvXvXvXvXvXvXvXvXvXvXvXy &.$.@.Y e $ o o ; < D E T T { E.5X0X0X0X0X0X7XW D k ;.:.:.>.A , X . vXvXvXvXvXvXvXvXvXvXvXvXvX",
"vXvXvXvXvXvXvXvXvXvXvXvXvXvX& q ~ *.U 6 2 - $ e / W y.H ` o.o.c.[.7XwX6X4X4X2X Xk g ;.j g f f       vXvXvXvXvXvXvXvXvXvXvXvXvXvX",
"vXvXvXvXvXvXvXvXvXvXvXvXvXX 3 ! ^ V 9 5 @ ; x L.7X;X;X=XQ L [ [ E [.2X4X<X>XZ.J j ;.:.u + O o . . . vXvXvXvXvXvXvXvXvXvXvXvXvXvX",
"vXvXvXvXvXvXvXvXvXvXvXvXvX& e Y U 6 5 5 @ ; z G.9X5X5X4Xk.T ` ^ m M.[.,X,X[.x.a j j j , o > 4 & & & vXvXvXvXvXvXvXvXvXvXvXvXvXvX",
"vXvXvXvXvXvXvXvXvXvXvXvX  / ^ M 5 6 6 5 o ; i F C.pXpX5X4XZ.) 6 6 6 9 R F c , . .     : L %.+XO.+.@.w   vXvXvXvXvXvXvXvXvXvXvXvX",
"vXvXvXvXvXvXvXvXvXvX@ 4 ^ L m 9 5 5 $ @ v.W c D N.5X5X4X4X1X=Xv.5 $ # x x 6 M ' '.'.'.].).@.^ @.+.+.e   vXvXvXvXvXvXvXvXvXvXvXvX",
"vXvXvXvXvXvXvXvXvXvX& e ] M 5 6 5 2 # o V.y.b F N.:X>X4X4X>X:Xv.2 : % , x M ^ *.$X#X@X$X`.@.U @.+.+.e   vXvXvXvXvXvXvXvXvXvXvXvX",
"vXvXvXvXvXvXvXvXvXq P P L 9 5 5 2 # ; , _ W R F F A.C.<X4X=Xx.H $ t P 4 U (.).}.#X%X%X].(.(.(.@.+.+.e   vXvXvXvXvXvXvXvXvXvXvXvX",
"vXvXvXvXvXvXvXvX! ~ Y L 6 5 2 2 $ o , p a D F b c F y.l.x.l.W M 2 e I t %.+X%X%X%X#X{.n.%.(.).O.^ P 4 vXvXvXvXvXvXvXvXvXvXvXvXvX",
"vXvXvXvXvXvXvXvX .*.8 8 5 5 2 @   vXvXvXvXi p p z n n x z n ^ Y 5 # X / `.@X%X%X%X+Xn.@.@.@.@.o.t # vXvXvXvXvXvXvXvXvXvXvXvXvXvX",
"vXvXvXvXvXvXvXvXK ' T N 6 2 $ o vXvXvXvXvXx x m ~ { { H T T U U 5 @   &..X@X%X%X%X+Xn.@.@.@.o.Y q @ vXvXvXvXvXvXvXvXvXvXvXvXvXvX",
"vXvXvXvXvXvXvXvX  q o.^ 6 X . vXvXvXvXvXvX6 6 U F.@X.X%.+.[ L 6 5 o X _.%X&X&X%X#X.Xn.O.o.O.[ 6 $ . vXvXvXvXvXvXvXvXvXvXvXvXvXvX",
"vXvXvXvXvXvXvXvX  X @ @ X vXvXvXvXvXvXvXvX6 8 @.@X%X.X#.L 6 6 2 X X X _.fXzXfX$X%.#.@.U 8 8 5 X X vXvXvXvXvXvXvXvXvXvXvXvXvXvXvX",
"vXvXvXvXvXvXvXvXvX        vXvXvXvXvXvXvXvX: 3  .%X%X.X#.Y L 8 2 % X   _.iXfXfX@X).).(.o.L L V   vXvXvXvXvXvXvXvXvXvXvXvXvXvXvXvX",
"vXvXvXvXvXvXvXvXvXvXvXvXvXvXvXvXvXvXvXvXvXo & | %X#X.X#.o.^ M 5 2 @ X _.&X&X8X%X+X+X+Xn.o.] ^   vXvXvXvXvXvXvXvXvXvXvXvXvXvXvXvX",
"vXvXvXvXvXvXvXvXvXvXvXvXvXvXvXvXvXvXvXvXvX  @ ! {.%X$X].%.o.^ L 5 % X $..X%X%X#X`.`.).`.(.n.o.t q @ vXvXvXvXvXvXvXvXvXvXvXvXvXvX",
"vXvXvXvXvXvXvXvXvXvXvXvXvXvXvXvXvXvXvXvXvXvXX t o._.'.|.F.o.o.U 2 @ X B $._.'.].n.%.#.).{.(.o./ q @ vXvXvXvXvXvXvXvXvXvXvXvXvXvX",
"vXvXvXvXvXvXvXvXvXvXvXvXvXvXvXvXvXvXvXvXvXvXvX& 0 t ! %.#.' U 7 X X   & w t ! (..X].%.%.%.#.] & % . vXvXvXvXvXvXvXvXvXvXvXvXvXvX",
"vXvXvXvXvXvXvXvXvXvXvXvXvXvXvXvXvXvXvXvXvXvXvXvX  . > / o.^ M 2           X q $.].].#.o.o.] ^ X X X vXvXvXvXvXvXvXvXvXvXvXvXvXvX",
"vXvXvXvXvXvXvXvXvXvXvXvXvXvXvXvXvXvXvXvXvXvXvXvXvXvXvXX   X           vXvXvXvXX % @ X   X . @ 5 5 5 # . vXvXvXvXvXvXvXvXvXvXvXvX",
"vXvXvXvXvXvXvXvXvXvXvXvXvXvXvXvXvXvXvXvXvXvXvXvXvXvXvX  $ 2 2 2 2 @   vXvXvXvXvXvXvX  # 2 2 2 6 5 5 2 $ X . vXvXvXvXvXvXvXvXvXvX",
"vXvXvXvXvXvXvXvXvXvXvXvXvXvXvXvXvXvXvXvXvXvXvXvXvXvXvXX 2 5 5 6 2 @ X vXvXvXvXvXvXvX. : 5 5 6 6 6 9 5 : @ . vXvXvXvXvXvXvXvXvXvX",
"vXvXvXvXvXvXvXvXvXvXvXvXvXvXvXvXvXvXvXvXvXvXvXvXvXX & B 9 5 9 2 $ X   vXvXvXvXvXvXvXvX# 2 t U 5 6 6 2 @ . . vXvXvXvXvXvXvXvXvXvX",
"vXvXvXvXvXvXvXvXvXvXvXvXvXvXvXvXvXvXvXvXvXvXvXvXq ( ( O.U L 8 2 # $ # X vXvXvXvXvXvXvX3 t &.n.U L L 3 # # # vXvXvXvXvXvXvXvXvXvX",
"vXvXvXvXvXvXvXvXvXvXvXvXvXvXvXvXvXvXvXvXvXvXvXvXt OX].#.o.` L 5 5 5 6 @ vXvXvXvXvXvXX I #.)..Xo.o.o.L 5 5 2 . vXvXvXvXvXvXvXvXvX",
"vXvXvXvXvXvXvXvXvXvXvXvXvXvXvXvXvXvXvXvXvXvXvX3 ! ].`.#.o.U 8 6 6 6 6 @   vXvXvXvXvX@ P %.).`.^ [ ` M 9 6 2 . vXvXvXvXvXvXvXvXvX",
"vXvXvXvXvXvXvXvXvXvXvXvXvXvXvXvXvXvXvXvX  2 5 U +.+.@.+.L 5 6 6 5 5 5 @   vXvXvX  @ 2 Y @.O.o.5 6 5 5 6 6 2   vXvXvXvXvXvXvXvXvX",
"vXvXvXvXvXvXvXvXvXvXvXvXvXvXvXvXvXvXvXvX    X @ % % % % X @ X X o X o X   vXvXvX    X @ % # % X X o X o X X   vXvXvXvXvXvXvXvXvX"
};
