/* XPM */
static char *result[] = {
/* columns rows colors chars-per-pixel */
"64 64 240 2 ",
"   c #121200",
".  c #1F1101",
"X  c #1A1A00",
"o  c #221402",
"O  c #261803",
"+  c #2A1B03",
"@  c #2C1D0A",
"#  c #271908",
"$  c #311E03",
"%  c #1F2004",
"&  c #2E2102",
"*  c #2E210A",
"=  c #282803",
"-  c #332403",
";  c #3B2504",
":  c #352A02",
">  c #3B2D03",
",  c #33240D",
"<  c #362A0B",
"1  c #3B2D0C",
"2  c #3E3104",
"3  c #3C3C01",
"4  c #383207",
"5  c #342511",
"6  c #372913",
"7  c #3A2B14",
"8  c #3D2E19",
"9  c #382712",
"0  c #3E3015",
"q  c #2E2112",
"w  c #481B00",
"e  c #452C05",
"r  c #422C0B",
"t  c #482B04",
"y  c #433603",
"u  c #463906",
"i  c #43340B",
"p  c #4B330C",
"a  c #46390A",
"s  c #4A3D0B",
"d  c #493C04",
"f  c #412E13",
"g  c #433314",
"h  c #4C3513",
"j  c #463913",
"k  c #4B3D15",
"l  c #43331C",
"z  c #45391A",
"x  c #4A3B1C",
"c  c #49361A",
"v  c #523C1B",
"b  c #503915",
"n  c #572E04",
"m  c #453621",
"M  c #4C3B22",
"N  c #513E24",
"B  c #6B3901",
"V  c #3D430B",
"C  c #4D410F",
"Z  c #474801",
"A  c #535508",
"S  c #4E4212",
"D  c #4E4119",
"F  c #464B11",
"G  c #524514",
"H  c #554917",
"J  c #52451B",
"K  c #564A1A",
"L  c #5A4D1D",
"P  c #5A4318",
"I  c #5D5815",
"U  c #504E0E",
"Y  c #644B17",
"T  c #66531F",
"R  c #744C15",
"E  c #5A6215",
"W  c #646B13",
"Q  c #616619",
"!  c #6C7619",
"~  c #717D1B",
"^  c #4B4422",
"/  c #534424",
"(  c #574B24",
")  c #55442A",
"_  c #5C4B2C",
"`  c #594927",
"'  c #5D5122",
"]  c #5B542A",
"[  c #5B4B32",
"{  c #564632",
"}  c #4F4130",
"|  c #634D2D",
" . c #624A23",
".. c #625424",
"X. c #665A2B",
"o. c #695D2D",
"O. c #645529",
"+. c #604E35",
"@. c #655334",
"#. c #6A5435",
"$. c #64543B",
"%. c #6A563A",
"&. c #6A5C3B",
"*. c #695C35",
"=. c #735E3D",
"-. c #745E37",
";. c #7C5B22",
":. c #6E6233",
">. c #6D653B",
",. c #716436",
"<. c #72653C",
"1. c #75693A",
"2. c #796D3E",
"3. c #7B6436",
"4. c #6B702C",
"5. c #6B5A44",
"6. c #725F43",
"7. c #6D6145",
"8. c #7B6543",
"9. c #766A43",
"0. c #7D6B43",
"q. c #7B6B4A",
"w. c #766549",
"e. c #7D7243",
"r. c #7E7349",
"t. c #7C6B51",
"y. c #796A57",
"u. c #656554",
"i. c #7B7165",
"p. c #5B5145",
"a. c #945E22",
"s. c #8E6933",
"d. c #AF7631",
"f. c #9F600C",
"g. c #826D4A",
"h. c #826B47",
"j. c #817345",
"k. c #85744C",
"l. c #857A4C",
"z. c #89784E",
"x. c #847153",
"c. c #8B7C53",
"v. c #8A765A",
"b. c #8D7B59",
"n. c #8A7555",
"m. c #927D5C",
"M. c #907D56",
"N. c #8F754A",
"B. c #907D62",
"V. c #79812F",
"C. c #838C39",
"Z. c #899233",
"A. c #CF8A2C",
"S. c #8D8153",
"D. c #8C8557",
"F. c #908557",
"G. c #93845A",
"H. c #98875C",
"J. c #AA8B55",
"K. c #AF8A4E",
"L. c #9AA442",
"P. c #A3AE4B",
"I. c #ACB753",
"U. c #A6B04E",
"Y. c #9D8C64",
"T. c #998668",
"R. c #9D9167",
"E. c #95896F",
"W. c #A38E6B",
"Q. c #A08966",
"!. c #A3936B",
"~. c #A8956F",
"^. c #A39669",
"/. c #B79A65",
"(. c #AC9B73",
"). c #A99776",
"_. c #B29D7A",
"`. c #B09C76",
"'. c #AEA175",
"]. c #AEA278",
"[. c #B4A37C",
"{. c #B9A979",
"}. c #B6AC6F",
"|. c #C58946",
" X c #D39655",
".X c #C6A874",
"XX c #CDB27A",
"oX c #D2B36F",
"OX c #E9AD64",
"+X c #BDC761",
"@X c #B9C45C",
"#X c #C9D469",
"$X c #C5CD65",
"%X c #F6CC79",
"&X c #A29C83",
"*X c #BAA681",
"=X c #BCAA84",
"-X c #B7A281",
";X c #BEB288",
":X c #AEA590",
">X c #B9B4A5",
",X c #9C958C",
"<X c #C3AE8B",
"1X c #C2B28B",
"2X c #C9B78C",
"3X c #C9B592",
"4X c #CBBA93",
"5X c #C8B997",
"6X c #D1BE9A",
"7X c #D9BF8B",
"8X c #C7BBA7",
"9X c #C6BEB1",
"0X c #CDC198",
"qX c #D3C39C",
"wX c #D4C99E",
"eX c #E5CC98",
"rX c #FFD781",
"tX c #EDF78A",
"yX c #D5C5A2",
"uX c #DBCBA4",
"iX c #D9CAA7",
"pX c #D8CBB7",
"aX c #D3CDAF",
"sX c #E7D9B1",
"dX c #EADDB5",
"fX c #E5D7B6",
"gX c #EAD6A9",
"hX c #F1E4BC",
"jX c #D3CFC2",
"kX c #D5D2CD",
"lX c #E3DDC6",
"zX c #F9EEC5",
"xX c #F6E9C4",
"cX c #FAF0CC",
"vX c #FBF4DC",
"bX c #F3ECDA",
"nX c #FBF6E8",
"mX c #FBFAF6",
"MX c #EFECE2",
"NX c None",
/* pixels */
"NXNXNXNXNXNXNXNXNXNXNXNXNXNXNXNXNXNXNXNXNXNXNXNXNXNXNXNXNXNXNXNXNXNXNXNXNXNXNXNXNXNXNXNXNXNXNXNXNXNXNXNXNXNXNXNXNXNXNXNXNXNXNXNX",
"NXNXNXNXNXNXNXNXNXNXNXNXNXNXNXNXNXNXNXNXNXNXNXNXNXNXNXNXNXNXNXNXNXNXNXNXNXNXNXNXNXNXNXNXNXNXNXNXNXNXNXNXNXNXNXNXNXNXNXNXNXNXNXNX",
"NXNXNXNXNXNXNXNXy j.NXNXNXNXo.NXNXNXNXNXNXNXNXNXNXNXNXNXNXNXNXNXNXNXNXNXNXNXNXNXNXNXNXNXNXNXNXNXNXNXNXNXNXNXNXNXNXNXNXNXNXNXNXNX",
"NXNXNXNXNXNXNXNXNXz.H.NXNXNX*.].y NXNXNXNXNXNXNXNXNXNXNXNXNXNXNXNXNXNXNXNXNXNXNXNXNXNXNXNXNXNXNXNXNXNXNXNXNXNXNXNXNXNXNXNXNXNXNX",
"NXNXNXNXNXNXNXNXNX5 yX2.NXNXo l.uX3 NXNXNXNXNXNXNXNXNXNXNXNXNXNXNXNXNXNXNXNXNXNXNXNXNXNXNXNXNXNXNXNXNXNXNXNXNXNXNXNXNXNXNXNXNXNX",
"NXNXNXNXNXNXNXNXNXNX[ qX,.NXNX. R.{.NXNXNXNXNXNXNXNXNXNXNXNXNXNXNXNXNXNXNXNXNXNXNXNXNXNXNXNXNXNXNXNXNXNXNXNXNXNXNXNXNXNXNXNXNXNX",
"NXNXNXNXNXNXNXNXNXNX[ yX1.NXNXo Y.{.NXNXNXNXNXNXNXNXNXNXNXNXNXNXNXNXNXNXNXNXNXNXNXNXNXNXNXNXNXNXNXNXNXNXNXNXNXNXNXNXNXNXNXNXNXNX",
"NXNXNXNXNXNXNXNXNXNXNXx.uXS.NXNX*.1X].Y.NXNXNXNXNXNXNXNXNXNXNXNXNXNXNXNXNXNXNXNXNXNXNXNXNXNXNXNXNXNXNXNXNXNXNXNXNXNXNXNXNXNXNXNX",
"NXNXNXNXNXNXNXNX. q.. x !.1X-.NX@ e.4XxXY.NXNXNXNXNXNXNXNXNXNXNXNXNXNXNXNXNXNXNXNXNXNXNXNXNXNXNXNXNXNXNXNXNXNXNXNXNXNXNXNXNXNXNX",
"NXNXNXNXNXNXNXNXo E.5 . l.=Xk.NXo ' (.hX2XNXNXNXNXNXNXNXNXNXNXNXNXNXNXNXNXNXNXNXNXNXNXNXNXNXNXNXNXNXNXNXNXNXNXNXNXNXNXNXNXNXNXNX",
"NXNXNXNXNXNXNXNXNX5 %.g - j.*Xk.> & ..(.4X[.H NXNXNXNXNXNXNXNXNXNXNXNXNXNXNXNXNXNXNXNXNXNXNXNXNXNXNXNXNXNXNXNXNXNXNXNXNXNXNXNXNX",
"NXNXNXNXNXNXNXNXNXNX^ c.o S z.=XG.- 2 F.(.4X0Xy NXNXNXNXNXNXNXNXNXNXNXNXNXNXNXNXNXNXNXNXNXNXNXNXNXNXNXNXNXNXNXNXNXNXNXNXNXNXNXNX",
"NXNXNXNXNXNXNXNXNXNXNXk ' + G l.1Xq.> u F.'.1Xj.u NXNXNXNXNXNXNXNXNXNXNXNXNXNXNXNXNXA A A NXNXNXNXNXNXNXNXNXNXNXNXNXNXNXNXNXNXNX",
"NXNXNXNXNXNXNXNXNXNXNXNXj 1 k G e.l.8 u e.^.e.j.' y NXNXNXNXNXNXNXNXNXNXNXNXNXNXD.}.tXtXL.F NXNXNXNXNXNXNXNXNXNXNXNXNXNXNXNXNXNX",
"NXNXNXNXNXNXNXNXNXNXNXNX. s 0 S C ' 2 & s ..].2.O.1.y y NXNXNXNXNXNXNXNXNXNXNXt n.u.wXtX#XZ.= NXNXNXNXNXNXNXNXNXNXNXNXNXNXNXNXNX",
"NXNXNXNXNXNXNXNXNXNXNXNXNX& y O y u 9.z.L S.=Xs ' ..S.j.L NXNXNXNXNXNXNXNXNXt oXa.X.^ t #X~ !   NXNX  V.NXNXNXNXNXNXNXNXNXNXNXNX",
"NXNXNXNXNXNXNXNXNXNXNXNXNXNX. 2 s D H H H H u H J D D k * NXNXNXNXNXNXNXNXNXE.|. Xa.d.d.;.L.A   NX= I   NXNXNXNXNXNXNXNXNXNXNXNX",
"NXNXNXNXNXNXNXNXNXNXNXNXNXNXNX2 -.. > F.(.;XG X.O . NXNXNXNXNXNXNXNXNXNXNXNXNXw |.OX%X|.Y 4.A = V E 4.] NXNXNXNXNXNXNXNXNXNXNXNX",
"NXNXNXNXNXNXNXNXNXNXNXNXNXNXNXR.* + >.=X6XY.r.r.. NXNXNXNXNXNXNXNXNXNXNXNXNXNXoX Xs.K.n 4 V W E = A U.E NXNXNXNXNXNXNXNXNXNXNXNX",
"NXNXNXNXNXNXNXNXNXNXNXNXNXNXy sX. & 2.1XiXS.L >.> 6 NXNXNXNXNXNXNXNXNXNXNXNXw |.OX Xd.t 4.V =   V V ! 3 NXNXNXNXNXNXNXNXNXNXNXNX",
"NXNXNXNXNXNXNXNXNXNXNXNXNXNXe.E.o j H.uXlX9.K . G (.%.NXNXNXNXNXNXNXNXNXNXNXNXR d.R w . F Z.W 4.X V A = NXNXNXNXNXNXNXNXNXNXNXNX",
"NXNXNXNXNXNXNXNXNXNXy NXNXNXF.8 o O.wXzXaXD ' . O ] sX&.j G y F.`.r.e.L NXy - NX. .   l.! $X$XI.V V V.4   NXNXNXNXNXNXNXNXNXNXNX",
"NXNXNXNXNXNXNXNXNXNXy NXNXNXF.8 O ..wXzXaXG ' . O ' sX&.z S 3 D.(.e.e.L NXy - NX. . . C.! +X$XI.V 3 ~ =   NXNXNXNXNXNXNXNXNXNXNX",
"NXNXNXNXNXNXNXNXNXK q.j.s s :.= O o.aXcX>XH O NXNX. a [.9.1 C u u ..G a s yX1 i s s s P.E U.U.P.A 3   ! L.% NXNXNXNXNXNXNXNXNXNX",
"NXNXNXNXNXNXNXNXNXx q.yX%X0Xs.4 C '.hXmXs o.# NXo.7 { i @.).1XY.r.1.-.!.pX:X7 Y.uX[.yX> X Q V.+XL.4 = - d + NXNXNXNXNXNXNXNXNXNX",
"NXNXNXNXNXNXNXNX' 5 '.XX/./.eX;XC ;XcXmXH ] > H.w.q.!.v._.0Xr.o.G H.!.>.mXk g o.[ ' S.v.6 +X#X@XV.i u :XH.H.(.t y NXNXNXNXNXNXNX",
"NXNXNXNXNXNXNXNXu S.j.f.T %XF.H F.uXnXG Q.$.y H _ 9.F.Y.4X0X>.' u a O :X:.+ S s dX~.' D.( #XE P.I 8XnX-Xh.h.`.h.<Xt t NXNXNXNXNX",
"NXNXNXNXNXNXNXNXNXo n B C f.C y Y.<XMXd [.7././.L T j.D.'.'.L S / $.dXnXO.O G s _.1.a o.>.X.E 3 O 8X_.g. .k.1.O.h._.[.H  .NXNXNX",
"NXNXNXNXNXNXNXNXNXNXNX- B : > O.(.yX:X:.T.Y./.eX2XeXY o.^.G.C s =XuX6X=X0 : C X...1 ( 1.K U 4 : $.pXaXv n.1.- / 8.g.g.2.Q.o NXNX",
"NXNXNXNXNXNXNXNXNXNXNXu J . - l.<XiX1.F.9.Y.s.nXcXhX;.G G.k.y y ~.<XyXF.o y d L l.r.S.' ' C W W E.pX5X8.N...@ m. .c.Y h.5 NXNXNX",
"NXNXNXNXNXNXNXNXNXNXNXC r.. 4 c.<XyX1.z._ J.0X.XgX.Xa.K k.a G ,.S.[.!.j.o a S.uXbXr.D.mXjX1.H s j v.).k | O p 8.~.J , r o NXNXNX",
"NXNXNXNXNXNXNXNXNXNXNXz.o + ,.=X5X(.:.L $ 3.s.K.XXJ.P 1.z.> v.l.j.F.!.e.o T [.L cX>X>.zXjX' c...(.@.5.t.[ # - g c O 2._ q.N.NXNX",
"NXy y NXNXy y y y NXNXH.o + :.=X1XG.H * 3 s.3..XK.s.* R.G.i C o.S.F.!.j.o H (.K qX;X' 6XyX' o.S l.o.R.1Xj.<.q.n.9.. - b..X/.;.NX",
"NXy S.1.s u L ~.dXs C 2.o H (.<X_.S ' . ..C J.s.s...O F.2.: x.j.e.F.^.e.o @ 2.G 4X=X' F.0X' ' @ C s s s Z U , L L s j..X;.. NXNX",
"NXNXy ..~.!.G.o.S.[.sX^.j.' ,.R.z.G D . O 1 P G D # ' F.2.> / K L e.e.o.o # O.X.(.0.L <XD.C > 1XmX5XsX4XK.%XH., X.!.G.h - : NXNX",
"NXNXNXNXL :.=XG..._ <X6XuX^.l.0XG.,.* o * k o @ & & ' z...y + - K ' >.,.> . > L L y s j.H y O iXvXE.!.!.3.A.d.z 0., < i ,.> y NX",
"NXNXNXNXNXNXs ,.S.2 $.!.s o.5.iXs O.l y x @.* y 2 K D.j.G y + . 2 ' L r.u . . . 3 - > u O & . <XfXq.] 2 O O O . o . . . O o NXNX",
"NXNXNXNXNXNXNXy > l.o.y e.g.9.P s L @ D Y./ O Z H X.r.Y.<.> > & : > 2 > 9.- . l * * 6 m 7 8 8 m * 6 0 1 J >.q.c./ D >.8 NXNXNXNX",
"NXNXNXNXNXNXNXy > l.o.y 2.k.q.G C K @ D Y./ + s G o.e.Y.:.2 > + - : 2 > <.- . 8 * * 1 m 7 8 g m * 7 0 1 D >.q.n.( J :.7 NXNXNXNX",
"NXNXNXNXNXNXNXNX: 2.G.1.G G / - C 1 & . ( o.u 1 1 ' l.o.( &.&.6.T.q./ $.j z ^ 5X1.s M <Xe._ ) *Xo.^ ^ 6 O . - : O . l *.j o.NXNX",
"NXNXNXNXNXNXNXNXK R.<X^.O.o.j O 2 & - O - H S + 6 J ).9.*.G.m.G.0X!.>.R.o.O.o.0Xe.- . [.,.+ . _.X.O . 7 O @ > y & o o 0 J 2.y NX",
"NXNXNXNXNXNXNXK =X4X<X~.F.~.j.y O . O L ,.(.S.L b.W.. o O # O o . . . ).l.- o &.: O o 0.- . . <.$ 9 # m.b #.8 - 2 2 2 O . S 2 NX",
"NXNXNXNXNXNXNXG.bXxXqX<XF.qXG.C s 5 <.uXaX>.0 + o { M $.v f N f l %.6 m - o - $ : S > . . . . $ f @.$ +.+.N w.N - o 1 - o . NXNX",
"NXNXNXNXNXNXT qXR.S.3X<X[.qXF.L 6 G.uXmX&.O | m :X[ 7 m M #.x @ 5 n.[ q.T.` O O O * # T.#.v +.$ r ,XT.l l 9 #.N | ; . . NXNXNXNX",
"NXNXNXNXNXNX..c.* O k.<X1X4XG ' * !.sXL O N.5 kXo 2 i L i O _ N ; o o # p m Q.p (.3.b.t O - o . B.p.# i G s o M 7 t . NXNXNXNXNX",
"NXNXNXNXNXNXO.c.# . @.<X<X4XG k @ &.x.P m +.[ w.r.S.o G <.r x / O t f w.m.9 l @ # l o [ b.#.# # 5.m wX_ ; G.k g x _ O NXNXNXNXNX",
"NXNXNXNXNXNX..c.# . $.<XsX1.:.@ : + . + [ N _.O a , n.| 7 O ; ..5 O M ` t #.{ #.# v O m.; | @ 9 q.> m z <.7 + - -.O N NXNXNXNXNX",
"NXNXNXNXNXy ~.g . . +.<XzXH D.* L : ; h.8Xi._.# S 2 h.e - y G c.l o - | h.o $ p o t # O h.M o 9 t.x y H  .O y k !.o ; NXNXNXNXNX",
"NXNXNXNXNXu [.7 . 5 2X6X0X0.&.o D 1 o O / 6.#.m -.o.o 7 X.f k q.8 # N l . W.l m 9 @ x.-.q N 7 # _ 1 ~.j O 9.S 0 b.7 ) NXNXNXNXNX",
"NXNXNXNXNX^.D.& . x.dXvXy ).l > @ ..+ $ { E.q n.# - o y ; + x.6.. y.i.N N l 5.6.M N M $ i.y.N M ) m 1 # - i + 6.m Y.o NXNXNXNXNX",
"NXNXNXNX].9.# . T.hXvXE.l.B.M p * 2.* t =.T.`.7 =., > H v b.%.@ . -Xf 7 h . y.l #.$ $ . B.N @ p # | <.O b y 8.w.r g.o NXNXNXNXNX",
"NXNXNXF.x.. # B.xXcX&X( k.. o O p +.1.O o o p =., $.=.=.` o o o . 5.# o r . 5.N @ $ + . +.# o ; o o o <.<.=.# f m.. NXNXNXNXNXNX",
"NXNXk.5X5 . v.fXnX).H ] o NXNX- N - / G ; $ N N &.h M +.l 9 + $ l o c $ . . 7 6.N r @ . , h $ O f $ o _ | $ | %., NXNXNXNXNXNXNX",
"NXy 2X1X, . <X<XhXu x NXNXNXNXNXNX$ ; O + > o . o O 7 N h.b.v v W.| b v.%.p b.6.r n.t.w 8.g.r 6.m.p #.%.f # 9 NXNXNXNXNXNXNXNXNX",
"NXu 3X;X, . 1X1XdXa k NXNXNXNXNXNX$ ; O - > o . o + 9 N h.v.b v W.+.b v.#.p m.6.r x.g.; 8.g.r 6.m.h #.6.l # 5 NXNXNXNXNXNXNXNXNX",
"NXNX. . . NX. . . . o NXNXNXNXNXNXNXNXt . . y u y O . . . . . . o . . . . . . . . . . . . . . o . . . . NXNXNXNXNXNXNXNXNXNXNXNX",
"NXNXNXNXNXNXNXNXNXNXNXNXNXNXNXNXNXNXNXNXNXNXNXNXNXNXNXNXNXNXNXNXNXNXNXNXNXNXNXNXNXNXNXNXNXNXNXNXNXNXNXNXNXNXNXNXNXNXNXNXNXNXNXNX",
"NXNXNXNXNXNXNXNXNXNXNXNXNXNXNXNXNXNXNXNXNXNXNXNXNXNXNXNXNXNXNXNXNXNXNXNXNXNXNXNXNXNXNXNXNXNXNXNXNXNXNXNXNXNXNXNXNXNXNXNXNXNXNXNX",
"NXNXNXNXNXNXNXNXNXNXNXNXNXNXNXNXNXNXNXNXNXNXNXNXNXNXNXNXNXNXNXNXNXNXNXNXNXNXNXNXNXNXNXNXNXNXNXNXNXNXNXNXNXNXNXNXNXNXNXNXNXNXNXNX",
"NXNXNXNXNXNXNXNXNXNXNXNXNXNXNXNXNXNXNXNXNXNXNXNXNXNXNXNXNXNXNXNXNXNXNXNXNXNXNXNXNXNXNXNXNXNXNXNXNXNXNXNXNXNXNXNXNXNXNXNXNXNXNXNX",
"NXNXNXNXNXNXNXNXNXNXNXNXNXNXNXNXNXNXNXNXNXNXNXNXNXNXNXNXNXNXNXNXNXNXNXNXNXNXNXNXNXNXNXNXNXNXNXNXNXNXNXNXNXNXNXNXNXNXNXNXNXNXNXNX",
"NXNXNXNXNXNXNXNXNXNXNXNXNXNXNXNXNXNXNXNXNXNXNXNXNXNXNXNXNXNXNXNXNXNXNXNXNXNXNXNXNXNXNXNXNXNXNXNXNXNXNXNXNXNXNXNXNXNXNXNXNXNXNXNX",
"NXNXNXNXNXNXNXNXNXNXNXNXNXNXNXNXNXNXNXNXNXNXNXNXNXNXNXNXNXNXNXNXNXNXNXNXNXNXNXNXNXNXNXNXNXNXNXNXNXNXNXNXNXNXNXNXNXNXNXNXNXNXNXNX",
"NXNXNXNXNXNXNXNXNXNXNXNXNXNXNXNXNXNXNXNXNXNXNXNXNXNXNXNXNXNXNXNXNXNXNXNXNXNXNXNXNXNXNXNXNXNXNXNXNXNXNXNXNXNXNXNXNXNXNXNXNXNXNXNX"
};
