/* XPM */
static char *result[] = {
/* columns rows colors chars-per-pixel */
"64 64 240 2 ",
"   c #121200",
".  c #1F1101",
"X  c #1A1A00",
"o  c #221402",
"O  c #261803",
"+  c #2A1B03",
"@  c #2C1D0A",
"#  c #271908",
"$  c #311E03",
"%  c #1F2004",
"&  c #2E2102",
"*  c #2E210A",
"=  c #282803",
"-  c #332403",
";  c #3B2504",
":  c #352A02",
">  c #3B2D03",
",  c #33240D",
"<  c #362A0B",
"1  c #3B2D0C",
"2  c #3E3104",
"3  c #3C3C01",
"4  c #383207",
"5  c #342511",
"6  c #372913",
"7  c #3A2B14",
"8  c #3D2E19",
"9  c #382712",
"0  c #3E3015",
"q  c #2E2112",
"w  c #481B00",
"e  c #452C05",
"r  c #422C0B",
"t  c #482B04",
"y  c #433603",
"u  c #463906",
"i  c #43340B",
"p  c #4B330C",
"a  c #46390A",
"s  c #4A3D0B",
"d  c #493C04",
"f  c #412E13",
"g  c #433314",
"h  c #4C3513",
"j  c #463913",
"k  c #4B3D15",
"l  c #43331C",
"z  c #45391A",
"x  c #4A3B1C",
"c  c #49361A",
"v  c #523C1B",
"b  c #503915",
"n  c #572E04",
"m  c #453621",
"M  c #4C3B22",
"N  c #513E24",
"B  c #6B3901",
"V  c #3D430B",
"C  c #4D410F",
"Z  c #474801",
"A  c #535508",
"S  c #4E4212",
"D  c #4E4119",
"F  c #464B11",
"G  c #524514",
"H  c #554917",
"J  c #52451B",
"K  c #564A1A",
"L  c #5A4D1D",
"P  c #5A4318",
"I  c #5D5815",
"U  c #504E0E",
"Y  c #644B17",
"T  c #66531F",
"R  c #744C15",
"E  c #5A6215",
"W  c #646B13",
"Q  c #616619",
"!  c #6C7619",
"~  c #717D1B",
"^  c #4B4422",
"/  c #534424",
"(  c #574B24",
")  c #55442A",
"_  c #5C4B2C",
"`  c #594927",
"'  c #5D5122",
"]  c #5B542A",
"[  c #5B4B32",
"{  c #564632",
"}  c #4F4130",
"|  c #634D2D",
" . c #624A23",
".. c #625424",
"X. c #665A2B",
"o. c #695D2D",
"O. c #645529",
"+. c #604E35",
"@. c #655334",
"#. c #6A5435",
"$. c #64543B",
"%. c #6A563A",
"&. c #6A5C3B",
"*. c #695C35",
"=. c #735E3D",
"-. c #745E37",
";. c #7C5B22",
":. c #6E6233",
">. c #6D653B",
",. c #716436",
"<. c #72653C",
"1. c #75693A",
"2. c #796D3E",
"3. c #7B6436",
"4. c #6B702C",
"5. c #6B5A44",
"6. c #725F43",
"7. c #6D6145",
"8. c #7B6543",
"9. c #766A43",
"0. c #7D6B43",
"q. c #7B6B4A",
"w. c #766549",
"e. c #7D7243",
"r. c #7E7349",
"t. c #7C6B51",
"y. c #796A57",
"u. c #656554",
"i. c #7B7165",
"p. c #5B5145",
"a. c #945E22",
"s. c #8E6933",
"d. c #AF7631",
"f. c #9F600C",
"g. c #826D4A",
"h. c #826B47",
"j. c #817345",
"k. c #85744C",
"l. c #857A4C",
"z. c #89784E",
"x. c #847153",
"c. c #8B7C53",
"v. c #8A765A",
"b. c #8D7B59",
"n. c #8A7555",
"m. c #927D5C",
"M. c #907D56",
"N. c #8F754A",
"B. c #907D62",
"V. c #79812F",
"C. c #838C39",
"Z. c #899233",
"A. c #CF8A2C",
"S. c #8D8153",
"D. c #8C8557",
"F. c #908557",
"G. c #93845A",
"H. c #98875C",
"J. c #AA8B55",
"K. c #AF8A4E",
"L. c #9AA442",
"P. c #A3AE4B",
"I. c #ACB753",
"U. c #A6B04E",
"Y. c #9D8C64",
"T. c #998668",
"R. c #9D9167",
"E. c #95896F",
"W. c #A38E6B",
"Q. c #A08966",
"!. c #A3936B",
"~. c #A8956F",
"^. c #A39669",
"/. c #B79A65",
"(. c #AC9B73",
"). c #A99776",
"_. c #B29D7A",
"`. c #B09C76",
"'. c #AEA175",
"]. c #AEA278",
"[. c #B4A37C",
"{. c #B9A979",
"}. c #B6AC6F",
"|. c #C58946",
" X c #D39655",
".X c #C6A874",
"XX c #CDB27A",
"oX c #D2B36F",
"OX c #E9AD64",
"+X c #BDC761",
"@X c #B9C45C",
"#X c #C9D469",
"$X c #C5CD65",
"%X c #F6CC79",
"&X c #A29C83",
"*X c #BAA681",
"=X c #BCAA84",
"-X c #B7A281",
";X c #BEB288",
":X c #AEA590",
">X c #B9B4A5",
",X c #9C958C",
"<X c #C3AE8B",
"1X c #C2B28B",
"2X c #C9B78C",
"3X c #C9B592",
"4X c #CBBA93",
"5X c #C8B997",
"6X c #D1BE9A",
"7X c #D9BF8B",
"8X c #C7BBA7",
"9X c #C6BEB1",
"0X c #CDC198",
"qX c #D3C39C",
"wX c #D4C99E",
"eX c #E5CC98",
"rX c #FFD781",
"tX c #EDF78A",
"yX c #D5C5A2",
"uX c #DBCBA4",
"iX c #D9CAA7",
"pX c #D8CBB7",
"aX c #D3CDAF",
"sX c #E7D9B1",
"dX c #EADDB5",
"fX c #E5D7B6",
"gX c #EAD6A9",
"hX c #F1E4BC",
"jX c #D3CFC2",
"kX c #D5D2CD",
"lX c #E3DDC6",
"zX c #F9EEC5",
"xX c #F6E9C4",
"cX c #FAF0CC",
"vX c #FBF4DC",
"bX c #F3ECDA",
"nX c #FBF6E8",
"mX c #FBFAF6",
"MX c #EFECE2",
"NX c None",
/* pixels */
"NXNXNXNXNXNXNXNXNXNXNXNXNXNXNXNXNXNXNXNXNXNXNXNXNXNXNXNXNXNXNXNXNXNXNXNXNXNXNXNXNXNXNXNXNXNXNXNXNXNXNXNXNXNXNXNXNXNXNXNXNXNXNXNX",
"NXNXNXNXNXNXNXNXNXNXNXNXNXNXNXNXNXNXNXNXNXNXNXNXNXNXNXNXNXNXNXNXNXNXNXNXNXNXNXNXNXNXNXNXNXNXNXNXNXNXNXNXNXNXNXNXNXNXNXNXNXNXNXNX",
"NXNXNXNXNXNXNXNXNXNXNXNXNXNXNXNXNXNXNXNXNXNXNXNXNXNXNXNXNXNXNXNXNXNXNXNXNXNXNXNXNXNXNXNXNXNXNXNXNXNXNXNXNXNXNXNXNXNXNXNXNXNXNXNX",
"NXNXNXNXNXNXNXNXNXNXNXNXNXNXNXNXNXNXNXNXNXNXNXNXNXNXNXNXNXNXNXNXNXNXNXNXNXNXNXNXNXNXNXNXNXNXNXNXNXNXNXNXNXNXNXNXNXNXNXNXNXNXNXNX",
"NXNXNXNXNXNXNXNXu j.NXNXNXNXX.NXNXNXNXNXNXNXNXNXNXNXNXNXNXNXNXNXNXNXNXNXNXNXNXNXNXNXNXNXNXNXNXNXNXNXNXNXNXNXNXNXNXNXNXNXNXNXNXNX",
"NXNXNXNXNXNXNXNXNXz.H.NXNXNX$.].y NXNXNXNXNXNXNXNXNXNXNXNXNXNXNXNXNXNXNXNXNXNXNXNXNXNXNXNXNXNXNXNXNXNXNXNXNXNXNXNXNXNXNXNXNXNXNX",
"NXNXNXNXNXNXNXNXNX6 yX2.NXNXo l.uXy NXNXNXNXNXNXNXNXNXNXNXNXNXNXNXNXNXNXNXNXNXNXNXNXNXNXNXNXNXNXNXNXNXNXNXNXNXNXNXNXNXNXNXNXNXNX",
"NXNXNXNXNXNXNXNXNXNX[ wX,.NXNX. R.{.NXNXNXNXNXNXNXNXNXNXNXNXNXNXNXNXNXNXNXNXNXNXNXNXNXNXNXNXNXNXNXNXNXNXNXNXNXNXNXNXNXNXNXNXNXNX",
"NXNXNXNXNXNXNXNXNXNX[ yX,.NXNXo R.{.NXNXNXNXNXNXNXNXNXNXNXNXNXNXNXNXNXNXNXNXNXNXNXNXNXNXNXNXNXNXNXNXNXNXNXNXNXNXNXNXNXNXNXNXNXNX",
"NXNXNXNXNXNXNXNXNXNXNXt.uXF.NXNX*.1X].Y.NXNXNXNXNXNXNXNXNXNXNXNXNXNXNXNXNXNXNXNXNXNXNXNXNXNXNXNXNXNXNXNXNXNXNXNXNXNXNXNXNXNXNXNX",
"NXNXNXNXNXNXNXNX. t.. x ~.1X-.NX+ j.4XhXY.NXNXNXNXNXNXNXNXNXNXNXNXNXNXNXNXNXNXNXNXNXNXNXNXNXNXNXNXNXNXNXNXNXNXNXNXNXNXNXNXNXNXNX",
"NXNXNXNXNXNXNXNX. R.5 . l.=Xk.NXO ' '.hX2XNXNXNXNXNXNXNXNXNXNXNXNXNXNXNXNXNXNXNXNXNXNXNXNXNXNXNXNXNXNXNXNXNXNXNXNXNXNXNXNXNXNXNX",
"NXNXNXNXNXNXNXNXNX5 &.z - e.*Xk.; - ..(.4X[.H NXNXNXNXNXNXNXNXNXNXNXNXNXNXNXNXNXNXNXNXNXNXNXNXNXNXNXNXNXNXNXNXNXNXNXNXNXNXNXNXNX",
"NXNXNXNXNXNXNXNXNXNX^ l.o C z.=XG.- 2 D.(.4X0Xy NXNXNXNXNXNXNXNXNXNXNXNXNXNXNXNXNXNXNXNXNXNXNXNXNXNXNXNXNXNXNXNXNXNXNXNXNXNXNXNX",
"NXNXNXNXNXNXNXNXNXNXNXk L + G l.1Xt.> y F.(.<Xj.a NXNXNXNXNXNXNXNXNXNXNXNXNXNXNXNXNXA A A NXNXNXNXNXNXNXNXNXNXNXNXNXNXNXNXNXNXNX",
"NXNXNXNXNXNXNXNXNXNXNXNXj 1 k H e.l.8 u e.^.e.j.' y NXNXNXNXNXNXNXNXNXNXNXNXNXNXD.}.tXtXL.F NXNXNXNXNXNXNXNXNXNXNXNXNXNXNXNXNXNX",
"NXNXNXNXNXNXNXNXNXNXNXNX. k 1 D S L 2 + C ' '.2.X.1.y y NXNXNXNXNXNXNXNXNXNXNXt t.u.wXtX#XZ.% NXNXNXNXNXNXNXNXNXNXNXNXNXNXNXNXNX",
"NXNXNXNXNXNXNXNXNXNXNXNXNX+ y O u u 2.S.L S.=Xs ' ' S.e.L NXNXNXNXNXNXNXNXNXw oXa...^ t #XV.!   NXNX  V.NXNXNXNXNXNXNXNXNXNXNXNX",
"NXNXNXNXNXNXNXNXNXNXNXNXNXNXo 2 s D K H H H u K J D D j & NXNXNXNXNXNXNXNXNXT. X Xa.d.d.;.L.A   NX% E   NXNXNXNXNXNXNXNXNXNXNXNX",
"NXNXNXNXNXNXNXNXNXNXNXNXNXNXNXy :.. : F.(.;XG X.+ . NXNXNXNXNXNXNXNXNXNXNXNXNXw  XOX%X|.Y ~ A = V E 4.] NXNXNXNXNXNXNXNXNXNXNXNX",
"NXNXNXNXNXNXNXNXNXNXNXNXNXNXNX!.* + <.=XqXH.j.r.. NXNXNXNXNXNXNXNXNXNXNXNXNXNXoX Xs.|.n 4 V E E = A U.E NXNXNXNXNXNXNXNXNXNXNXNX",
"NXNXNXNXNXNXNXNXNXNXNXNXNXNXu uX. & 0.;XuXS.' >.1 < NXNXNXNXNXNXNXNXNXNXNXNXw |.OX Xd.w 4.V = % V Z ! 3 NXNXNXNXNXNXNXNXNXNXNXNX",
"NXNXNXNXNXNXNXNXNXNXNXNXNXNXj.E.. j G.iXlX9.L o D (.%.NXNXNXNXNXNXNXNXNXNXNXNXR s.R w   U C.W :.% V A = NXNXNXNXNXNXNXNXNXNXNXNX",
"NXNXNXNXNXNXNXNXNXNXy NXNXNXG.7 o X.wXxXaXG ' . + ] sX*.z S y F.(.e.0.' NXp $ NXo o   C.! +X$XI.V V V.4   NXNXNXNXNXNXNXNXNXNXNX",
"NXNXNXNXNXNXNXNXNXNXy NXNXNXG.7 o X.wXzXaXS ( . O ] sX*.z S 3 F.(.e.e.L NXy - NXo .   C.! +X$XI.V V ! 4   NXNXNXNXNXNXNXNXNXNXNX",
"NXNXNXNXNXNXNXNXNX( t.j.C s :.* + X.uXzX9XG O NXNX. s [.9.< s s u ' G u s wX7 y s s s U.Q U.U.P.U 3   ! Z.= NXNXNXNXNXNXNXNXNXNX",
"NXNXNXNXNXNXNXNXNXk q.yX%X7Xs.> C [.hXmXs o.+ NXo.7 { i @.).2XY.e.,.,.~.aX:X0 Y.uX[.yX1 X E C.+XL.4 & - Z + NXNXNXNXNXNXNXNXNXNX",
"NXNXNXNXNXNXNXNX' 5 (.XX}.}.eX1XC ;XcXmXH [ > T.9.w.!.v._.0Xr.X.G Y.W.,.mXx i :._ ..S.v.6 +X$X@XV.3 d :Xm.T.(.t y NXNXNXNXNXNXNX",
"NXNXNXNXNXNXNXNXu S.j.f.X.%XF.K H.uXnXG Y.[ > K _ 9.F.Y.4X4X,.' u s . >X*.+ G d dX(.L D.( #XA P.I 9XnX_.g.g.`.h.=Xe t NXNXNXNXNX",
"NXNXNXNXNXNXNXNXNX. n n Z f.s y H.1XMXu -Xw././.Y ..e.F.'.'.L S / p.dXvXX.O G u ].1.u o.*.4.W 4 = >X_.g. .g.1.X.h.[.[.P  .NXNXNX",
"NXNXNXNXNXNXNXNXNXNXNX- B - ; X.].yX:X:.B.Y./.eX2XeXY o.^.G.s s =XuX6X{.g : s X...7 / 1.K F 4 : 5.jX8XP N.9.; / 3.g.k.0.Q.o NXNX",
"NXNXNXNXNXNXNXNXNXNXNXy J . - l.<XiX1.D.9.Y.s.nXcXxX;.k F.z.y y ~.<XyXF.o y y ..l.r.S.' ' S W W E.pX5Xh.N.O.@ M.| c.L h.5 NXNXNX",
"NXNXNXNXNXNXNXNXNXNXNXC r.o > S.1XqX1.S._ J.7X.XgX.X;.K k.a G ,.S.*X!.e.o s c.uXMXr.F.mXjX1.G s j v.).k ] O p h.~.J * r o NXNXNX",
"NXNXNXNXNXNXNXNXNXNXNXz.. + ,.=X3X'.o.L - 3.s.J.XXJ.Y 1.c.< D.l.j.F.~.j.o L *XK cX>X,.zXjXL S...(.@.5.t.[ # - f l o 8._ w.M.NXNX",
"NXy y NXNXy y y y NXNXY.o + :.*X1XG.K * u s.:.XXK.s.& Y.M.a k o.S.F.^.j.o H (.L wX;X' 6XyX' o.S l.o.R.1Xe.1.r.l.1.. @ v..X/.;.NX",
"NXy S.1.s u L ~.dXs C 2.o H (.<X`.S ' . ..G J.s.s.T # F.2.- x.j.e.D.!.0.o $ 2.G 3X=X' F.0X' L * S s s s a s * L ' s s.XX;.o NXNX",
"NXNXy ..~.^.F.o.S.*XsX^.j.' ,.R.c.G G . o 1 P G S # ' F.2.> / K K e.e.o.o # X.X.`.2.L <XG.s 4 ;XmX5XsX4XJ.%XJ., X.W.G.h & : NXNX",
"NXNXNXNXL ,.<XS...) <XqXyX^.l.qXG.,.@ . * S o & @ - ' S...y & & K ' :.1.> . < L L y s j.K y O uXnXR.!.^.e.A.d.z 0.< < i ,.> y NX",
"NXNXNXNXNXNXs :.S.2 $.!.s o.&.uXs O.f y k @.* 2 y H D.l.G y & . 2 ' ' e.u . . o y : : y + - . <XfXq.] 4 o O o . o . . o O o NXNX",
"NXNXNXNXNXNXNXy 2 j.o.y e.k.w.H C ( @ J Y./ O s G X.e.Y.:.2 > + : > > > >.- . l * @ 7 M 7 8 8 m * 6 7 1 J >.0.v.( D >.7 NXNXNXNX",
"NXNXNXNXNXNXNXy > l.o.y e.k.9.P C K & D Y./ + u H o.e.Y.,.> > & - : 2 : 9.- . m * * 6 m 7 8 0 z & 6 8 1 J >.q.v.( J >.7 NXNXNXNX",
"NXNXNXNXNXNXNXNX: e.F.,.G G / : C < & . ) :.u 1 7 ( z.o.' &.$.&.T.w./ *.j k ^ 1X1.a M <Xe.| ) *Xo./ / < o o - - o . g o.j o.NXNX",
"NXNXNXNXNXNXNXNXK Q.<X^.X.X.g o 2 - - O & G G + 6 J ).9.*.M.G.T.6X~.>.!.o.] o.qXe.& . *X,.+ . _.X.O o 5 + @ > y + O o 0 K 2.y NX",
"NXNXNXNXNXNXNXL *X4X<X~.S.(.j.y O . o L 1.(.S.( b.W.. . o @ O . . .   ).l.- . *.> O o 9.- . . <.& 6 + m.b #.f < 2 > 2 O . S > NX",
"NXNXNXNXNXNXNXG.bXxXqX<XF.qXF.S j 6 -.uXyX>.0 & o [ M %.v f N r l $.7 M - o - $ - C > . . . . , 7 %.- +.[ N 7.N , o 1 - . . NXNX",
"NXNXNXNXNXNXT qXR.S.4X<X*XqXF.K 6 G.uXmX7.o _ m :X[ 7 m N #.M @ 5 n.+.w.T.` O O + * + T.#.x | @ r ,XT.l l 7 #.N | ; . . NXNXNXNX",
"NXNXNXNXNXNX' c.+ # k.<X<X4XG ' * ^.sX' + c.5 kXo 1 y L i o _ N ; o . # p m Q.b (.3.b.t # ; o . B.p.@ a G s o M 7 t . NXNXNXNXNX",
"NXNXNXNXNXNX..c.# . $.<X1X2XJ k * *.g.P M [ { q.r.c.o G 1.r v / + e f w.m.7 f # # l . { m.@.o # 5.l wX` ; G.k l x _ + NXNXNXNXNX",
"NXNXNXNXNXNX..c.+ o $.<XfX1.:.@ ; & . + _ N _.O j , n.| 7 o : ..5 # N N t %.N $.O M O m.t | q 9 y.> z m 8.1 + & ,.o N NXNXNXNXNX",
"NXNXNXNXNXy ~.g . . [ <XzXH D., L - ; 0.8Xi._.# G y 0.e - 2 G c.l # $ [ h.o 9 t O t $ O 8.M . 9 t.z y H  .o 2 C ~.o ; NXNXNXNXNX",
"NXNXNXNXNXu [.7 . 5 3X6X0X0.$.O k > o O ) 6.$.l -.*.. < X.i c h.9 # N m . W.l l 9 @ x.=.q N 7 # _ 0 ~.j o 0.k f b.7 ) NXNXNXNXNX",
"NXNXNXNXNX^.c.# . v.dXvXu ).8 e @ ..+ @ ) E.5 v.@ - o y < O v.6.. y.v.N N l u.w.M N N @ y.y.N M ) l 1 + > 1 & 5.m Q.. NXNXNXNXNX",
"NXNXNXNX].0.# . T.xXbXT.l.T.M p * 2.@ e =.T.`.9 =., y H J n.%.@ . -Xf f p . y.l #.$ $ . B.N @ p # _ =.O b y 8.w.; k.. NXNXNXNXNX",
"NXNXNXD.l.. # v.xXcX&X' j.. o o p +.2.+ o o p =.5 @.=.6.) o o o . %.# o e . %.M @ $ O . | # O ; o o o =.<.=.+ f m.. NXNXNXNXNXNX",
"NXNXz.5X< . v.lXbX&XK ] o NXNX; N $ / G $ $ / / %.h M [ l 9 + $ l o c $ . . 9 6.N 7 @ . , h - O f - o ) | $ | %.9 NXNXNXNXNXNXNX",
"NXu 3X;X< . ;X<XhXy k NXNXNXNXNXNX$ ; + - > o . o O 9 N h.M.b v W.#.b v.%.p m.6.r x.g.w 8.g.r 6.m.h #.=.8 @ 9 NXNXNXNXNXNXNXNXNX",
"NXu 1X1X, . <X<XhXy k NXNXNXNXNXNX$ e O & > o . o O 7 N h.b.h v W.#.b v.%.p m.6.r x.h.; 8.g.r 6.m.h %.&.8 + 9 NXNXNXNXNXNXNXNXNX",
"NXNXo . . NXo . . . o NXNXNXNXNXNXNXNXt . . 2 y y # . . . . o o . . . o . . . . . o . . . . . . . . . o NXNXNXNXNXNXNXNXNXNXNXNX",
"NXNXNXNXNXNXNXNXNXNXNXNXNXNXNXNXNXNXNXNXNXNXNXNXNXNXNXNXNXNXNXNXNXNXNXNXNXNXNXNXNXNXNXNXNXNXNXNXNXNXNXNXNXNXNXNXNXNXNXNXNXNXNXNX",
"NXNXNXNXNXNXNXNXNXNXNXNXNXNXNXNXNXNXNXNXNXNXNXNXNXNXNXNXNXNXNXNXNXNXNXNXNXNXNXNXNXNXNXNXNXNXNXNXNXNXNXNXNXNXNXNXNXNXNXNXNXNXNXNX",
"NXNXNXNXNXNXNXNXNXNXNXNXNXNXNXNXNXNXNXNXNXNXNXNXNXNXNXNXNXNXNXNXNXNXNXNXNXNXNXNXNXNXNXNXNXNXNXNXNXNXNXNXNXNXNXNXNXNXNXNXNXNXNXNX",
"NXNXNXNXNXNXNXNXNXNXNXNXNXNXNXNXNXNXNXNXNXNXNXNXNXNXNXNXNXNXNXNXNXNXNXNXNXNXNXNXNXNXNXNXNXNXNXNXNXNXNXNXNXNXNXNXNXNXNXNXNXNXNXNX",
"NXNXNXNXNXNXNXNXNXNXNXNXNXNXNXNXNXNXNXNXNXNXNXNXNXNXNXNXNXNXNXNXNXNXNXNXNXNXNXNXNXNXNXNXNXNXNXNXNXNXNXNXNXNXNXNXNXNXNXNXNXNXNXNX",
"NXNXNXNXNXNXNXNXNXNXNXNXNXNXNXNXNXNXNXNXNXNXNXNXNXNXNXNXNXNXNXNXNXNXNXNXNXNXNXNXNXNXNXNXNXNXNXNXNXNXNXNXNXNXNXNXNXNXNXNXNXNXNXNX"
};
